<svg xmlns="http://www.w3.org/2000/svg" viewBox="0 0 1136 270" fill="#E8ECF3" fill-rule="evenodd"><path d="M37.0,87.0 L35.0,87.0 L33.0,87.0 L31.0,87.0 L29.0,87.1 L27.0,87.0 L25.0,87.1 L23.0,87.0 L21.0,87.1 L20.0,86.8 L19.5,85.0 L19.5,83.0 L19.5,81.0 L19.5,79.0 L19.5,77.0 L19.5,75.0 L19.5,73.0 L19.5,71.0 L19.5,69.0 L19.5,67.0 L19.6,65.0 L19.6,63.0 L19.6,61.0 L19.6,59.0 L19.6,57.0 L19.6,55.0 L19.6,53.0 L19.6,51.0 L19.5,49.0 L19.5,47.0 L19.5,45.0 L19.5,43.0 L19.6,41.0 L19.6,39.0 L19.6,37.0 L19.6,35.0 L19.6,33.0 L19.6,31.0 L20.0,29.3 L22.0,29.1 L23.7,29.0 L25.0,29.0 L27.0,29.0 L29.0,29.0 L30.0,29.0 L32.0,29.0 L34.0,29.0 L36.0,29.0 L37.5,29.0 L39.0,29.0 L41.0,29.0 L43.0,29.0 L45.0,29.0 L47.0,29.0 L49.0,29.0 L51.0,29.0 L53.0,29.0 L55.0,29.0 L57.0,29.0 L59.0,29.0 L61.0,29.0 L63.0,29.1 L65.0,29.1 L67.0,29.1 L69.0,29.1 L71.0,29.2 L73.0,29.5 L75.0,29.9 L76.0,30.2 L78.0,31.0 L79.7,32.0 L81.0,32.9 L82.0,33.7 L83.0,34.8 L83.8,36.0 L84.4,37.0 L85.0,38.3 L85.4,40.0 L85.9,42.0 L86.0,43.2 L86.0,45.0 L86.0,47.0 L85.9,48.0 L85.3,50.0 L84.5,52.0 L83.9,53.0 L83.0,54.1 L82.0,55.0 L80.5,56.0 L81.0,57.3 L82.4,58.0 L83.6,59.0 L84.7,60.0 L85.6,61.0 L86.4,62.0 L87.0,63.1 L87.7,65.0 L88.0,66.0 L88.4,68.0 L88.4,70.0 L88.4,72.0 L88.2,74.0 L87.8,75.0 L87.4,77.0 L86.9,78.0 L86.0,79.6 L85.1,81.0 L84.2,82.0 L83.0,83.0 L82.0,83.7 L81.0,84.4 L79.7,85.0 L78.0,85.6 L77.0,86.0 L75.0,86.5 L73.0,86.8 L71.0,87.0 L69.0,87.0 L67.0,87.0 L65.0,86.9 L63.0,86.9 L61.0,86.9 L59.0,86.9 L57.0,86.9 L55.0,86.9 L53.0,86.9 L51.0,86.9 L49.0,86.9 L47.0,86.9 L45.0,86.9 L43.0,86.9 L41.0,86.9 L39.0,87.0 L37.3,87.0 Z M174.0,87.1 L172.0,87.0 L170.0,87.0 L168.0,86.9 L166.0,86.9 L164.0,87.0 L162.0,87.0 L160.0,87.0 L158.0,87.0 L156.0,87.0 L154.0,87.0 L152.0,87.0 L150.0,87.0 L148.0,87.0 L146.0,87.0 L144.0,87.0 L142.0,87.0 L140.0,87.0 L138.0,87.0 L136.0,87.0 L134.0,87.1 L132.0,87.1 L130.0,87.1 L128.0,87.1 L126.0,87.0 L124.0,87.0 L122.0,87.0 L120.0,87.0 L118.1,87.0 L118.0,87.0 L117.5,85.0 L117.5,83.0 L117.5,81.0 L117.5,79.0 L117.4,77.0 L117.4,75.0 L117.4,73.0 L117.4,71.0 L117.4,69.0 L117.4,67.0 L117.4,65.0 L117.4,63.0 L117.4,61.0 L117.4,59.0 L117.4,57.0 L117.4,55.0 L117.4,53.0 L117.4,51.0 L117.4,49.0 L117.4,47.0 L117.4,45.0 L117.4,43.0 L117.4,41.0 L117.4,39.0 L117.4,37.0 L117.4,35.0 L117.4,33.0 L117.4,31.0 L118.0,29.0 L119.0,29.0 L121.0,29.0 L123.0,29.0 L125.0,29.0 L127.0,29.1 L127.8,31.0 L127.8,33.0 L127.9,35.0 L127.9,37.0 L127.9,39.0 L127.9,41.0 L127.8,43.0 L127.8,45.0 L127.8,47.0 L127.9,49.0 L127.9,51.0 L127.9,53.0 L127.9,55.0 L127.9,57.0 L127.9,59.0 L127.9,61.0 L127.9,63.0 L127.9,65.0 L127.9,67.0 L127.9,69.0 L127.9,71.0 L127.9,73.0 L127.9,75.0 L128.0,76.3 L129.0,77.1 L130.0,77.0 L131.0,77.0 L133.0,77.0 L135.0,77.1 L137.0,77.1 L139.0,77.0 L140.5,77.0 L142.0,77.0 L144.0,76.9 L146.0,76.9 L148.0,76.9 L150.0,77.0 L152.0,77.0 L154.0,77.0 L156.0,77.0 L158.0,77.0 L160.0,77.0 L162.0,77.0 L164.0,77.0 L166.0,76.9 L168.0,76.9 L170.0,77.0 L172.0,77.0 L173.4,77.0 L174.1,77.0 L174.6,79.0 L174.6,81.0 L174.6,83.0 L174.6,85.0 L174.1,87.0 Z M274.0,87.0 L272.3,87.0 L271.0,87.0 L269.0,87.0 L267.0,87.0 L265.0,87.0 L264.0,87.0 L263.0,86.8 L262.0,85.5 L261.2,84.0 L260.6,83.0 L260.0,81.8 L259.1,80.0 L258.5,79.0 L258.0,78.0 L257.0,76.2 L256.3,75.0 L255.7,74.0 L255.0,72.7 L254.1,71.0 L253.5,70.0 L253.0,69.0 L252.0,67.2 L251.3,66.0 L250.7,65.0 L250.0,63.6 L249.2,62.0 L248.6,61.0 L248.0,59.9 L247.0,58.1 L246.4,57.0 L245.8,56.0 L245.0,54.5 L244.3,53.0 L243.7,52.0 L243.0,50.7 L242.1,49.0 L241.5,48.0 L240.9,47.0 L240.0,45.3 L239.3,44.0 L238.6,43.0 L238.0,41.9 L237.1,43.0 L236.6,44.0 L236.0,45.0 L235.0,46.8 L234.4,48.0 L233.8,49.0 L233.0,50.4 L232.0,52.0 L231.5,53.0 L230.9,54.0 L230.0,55.5 L229.2,57.0 L228.7,58.0 L228.0,59.2 L227.0,60.9 L226.5,62.0 L225.9,63.0 L225.0,64.7 L224.4,66.0 L223.7,67.0 L223.0,68.4 L222.2,70.0 L221.7,71.0 L221.0,72.0 L220.0,73.9 L219.5,75.0 L218.8,76.0 L218.0,77.5 L217.2,79.0 L216.6,80.0 L216.0,81.1 L215.0,83.0 L214.5,84.0 L213.7,85.0 L213.0,86.4 L212.0,87.1 L211.0,87.0 L209.0,87.0 L207.5,87.0 L206.0,87.0 L204.0,87.0 L202.4,87.0 L201.9,87.0 L201.7,85.0 L202.4,84.0 L203.0,82.8 L203.9,81.0 L204.6,80.0 L205.1,79.0 L206.0,77.4 L206.7,76.0 L207.4,75.0 L208.0,73.8 L209.0,72.1 L209.6,71.0 L210.2,70.0 L211.0,68.5 L211.7,67.0 L212.4,66.0 L213.0,64.8 L214.0,63.1 L214.6,62.0 L215.1,61.0 L216.0,59.5 L216.8,58.0 L217.5,57.0 L218.0,56.0 L219.0,54.3 L219.7,53.0 L220.4,52.0 L221.0,50.7 L221.8,49.0 L222.5,48.0 L223.0,46.9 L224.0,45.2 L224.6,44.0 L225.3,43.0 L226.0,41.8 L227.0,40.1 L227.6,39.0 L228.2,38.0 L229.0,36.4 L229.7,35.0 L230.4,34.0 L231.0,32.7 L231.9,31.0 L232.5,30.0 L233.7,29.0 L235.0,28.9 L237.0,28.9 L239.0,28.9 L241.0,28.9 L242.0,29.0 L243.1,30.0 L244.0,31.7 L244.7,33.0 L245.3,34.0 L246.0,35.3 L246.9,37.0 L247.5,38.0 L248.0,39.0 L249.0,40.8 L249.7,42.0 L250.3,43.0 L251.0,44.2 L252.0,46.0 L252.6,47.0 L253.1,48.0 L254.0,49.6 L254.8,51.0 L255.4,52.0 L256.0,53.0 L257.0,54.8 L257.6,56.0 L258.3,57.0 L259.0,58.3 L259.9,60.0 L260.5,61.0 L261.0,62.0 L262.0,63.9 L262.6,65.0 L263.2,66.0 L264.0,67.5 L264.9,69.0 L265.4,70.0 L266.0,71.0 L267.0,72.7 L267.8,74.0 L268.4,75.0 L269.0,76.1 L270.0,78.0 L271.0,79.9 L271.6,81.0 L272.2,82.0 L273.0,83.6 L273.8,85.0 L274.5,86.0 L274.0,87.0 Z M361.0,87.2 L359.0,87.1 L357.0,87.1 L355.0,87.1 L353.0,87.1 L351.0,87.1 L349.0,87.1 L347.0,87.1 L345.0,87.2 L343.0,87.2 L341.0,87.2 L339.0,87.2 L337.0,87.2 L335.0,87.2 L333.0,87.2 L331.0,87.2 L329.0,87.2 L327.0,87.2 L325.0,87.3 L323.0,87.3 L321.0,87.3 L319.0,87.1 L318.0,86.8 L316.0,86.6 L314.0,86.2 L313.0,85.8 L311.0,85.3 L310.0,84.7 L308.4,84.0 L307.0,83.3 L306.0,82.5 L305.0,81.7 L304.0,80.8 L303.0,79.8 L302.0,78.8 L301.0,77.4 L300.2,76.0 L299.5,75.0 L299.0,73.8 L298.3,72.0 L297.8,71.0 L297.3,69.0 L297.0,67.2 L296.7,66.0 L296.4,64.0 L296.3,62.0 L296.3,60.0 L296.3,58.0 L296.3,56.0 L296.3,54.0 L296.4,52.0 L296.7,50.0 L297.0,48.7 L297.3,47.0 L297.9,45.0 L298.3,44.0 L299.0,42.5 L299.6,41.0 L300.3,40.0 L301.0,38.9 L302.0,37.5 L303.0,36.3 L304.0,35.2 L305.0,34.4 L306.0,33.6 L307.0,33.0 L308.7,32.0 L310.0,31.3 L311.0,30.9 L313.0,30.2 L314.0,29.8 L316.0,29.4 L318.0,29.2 L319.0,29.0 L321.0,28.8 L323.0,28.8 L325.0,28.8 L327.0,28.8 L329.0,28.8 L331.0,28.8 L333.0,28.8 L335.0,28.8 L337.0,28.8 L339.0,28.8 L341.0,28.9 L343.0,28.9 L345.0,28.9 L347.0,28.9 L349.0,28.9 L351.0,28.9 L353.0,28.9 L355.0,28.9 L357.0,28.9 L359.0,28.9 L361.0,29.0 L361.6,31.0 L361.6,33.0 L361.6,35.0 L361.6,37.0 L361.2,39.0 L360.0,39.2 L358.0,39.2 L356.0,39.1 L354.0,39.1 L352.0,39.1 L350.0,39.1 L348.0,39.1 L346.0,39.1 L344.0,39.2 L342.0,39.2 L340.0,39.2 L338.0,39.2 L336.0,39.2 L334.0,39.2 L332.0,39.2 L330.0,39.2 L328.0,39.1 L326.0,39.1 L324.0,39.1 L322.0,39.2 L320.0,39.3 L318.0,39.6 L316.6,40.0 L315.0,40.6 L314.0,41.2 L312.6,42.0 L311.4,43.0 L310.5,44.0 L309.7,45.0 L309.0,46.3 L308.4,48.0 L308.0,49.0 L307.5,51.0 L307.3,53.0 L307.3,55.0 L307.3,57.0 L307.3,59.0 L307.3,61.0 L307.3,63.0 L307.5,65.0 L307.9,67.0 L308.3,68.0 L309.0,69.8 L309.5,71.0 L310.3,72.0 L311.1,73.0 L312.2,74.0 L313.7,75.0 L315.0,75.6 L316.0,76.1 L318.0,76.5 L320.0,76.8 L322.0,76.9 L324.0,77.0 L326.0,76.9 L328.0,76.9 L330.0,76.9 L332.0,76.9 L334.0,76.9 L336.0,76.9 L338.0,76.9 L340.0,76.9 L342.0,76.9 L344.0,76.9 L346.0,76.9 L348.0,76.9 L350.0,76.9 L352.0,76.9 L354.0,76.9 L356.0,76.9 L358.0,76.9 L359.0,77.0 L360.0,77.0 L361.0,77.0 L361.5,79.0 L361.6,81.0 L361.6,83.0 L361.6,85.0 L361.2,87.0 Z M457.0,87.2 L455.0,87.1 L453.0,87.1 L451.0,87.1 L449.0,87.1 L447.0,87.2 L445.0,87.2 L443.0,87.2 L442.0,86.9 L440.6,86.0 L439.3,85.0 L438.1,84.0 L437.0,83.3 L436.0,82.4 L435.0,81.6 L434.0,80.7 L432.9,80.0 L431.6,79.0 L430.3,78.0 L429.0,77.0 L428.0,76.3 L427.0,75.5 L426.0,74.7 L425.0,73.9 L423.7,73.0 L422.4,72.0 L421.2,71.0 L420.0,70.1 L419.0,69.4 L418.0,68.5 L417.0,67.8 L415.9,67.0 L414.6,66.0 L413.3,65.0 L412.0,64.1 L411.0,63.4 L410.0,62.7 L408.0,62.6 L406.0,62.6 L404.0,62.6 L402.0,62.6 L400.8,63.0 L400.8,65.0 L400.7,67.0 L400.8,69.0 L400.8,71.0 L400.8,73.0 L400.8,75.0 L400.8,77.0 L400.7,79.0 L400.7,81.0 L400.7,83.0 L400.7,85.0 L400.3,87.0 L399.0,87.0 L397.0,87.1 L395.0,87.0 L393.8,87.0 L392.0,86.9 L390.4,86.0 L390.5,84.0 L390.4,82.0 L390.4,80.0 L390.4,78.0 L390.4,76.0 L390.4,74.0 L390.4,72.0 L390.4,70.0 L390.4,68.0 L390.4,66.0 L390.4,64.0 L390.4,62.0 L390.4,60.0 L390.4,58.0 L390.4,56.0 L390.4,54.0 L390.4,52.0 L390.4,50.0 L390.4,48.0 L390.4,46.0 L390.4,44.0 L390.4,42.0 L390.4,40.0 L390.4,38.0 L390.4,36.0 L390.4,34.0 L390.4,32.0 L390.4,30.0 L391.6,29.0 L393.0,29.0 L395.0,28.9 L397.0,28.9 L399.0,28.9 L400.1,29.0 L400.7,31.0 L400.7,33.0 L400.7,35.0 L400.7,37.0 L400.7,39.0 L400.7,41.0 L400.7,43.0 L400.7,45.0 L400.7,47.0 L400.8,49.0 L400.8,51.0 L401.0,52.2 L403.0,52.5 L405.0,52.5 L407.0,52.5 L409.0,52.5 L411.0,52.0 L412.0,51.3 L413.0,50.4 L414.0,49.6 L415.0,48.9 L416.2,48.0 L417.4,47.0 L418.7,46.0 L420.0,45.1 L421.0,44.3 L422.0,43.5 L423.0,42.7 L424.1,42.0 L425.5,41.0 L426.9,40.0 L428.0,39.2 L429.0,38.4 L430.0,37.6 L431.0,36.7 L433.0,35.3 L434.0,34.5 L435.0,33.8 L436.1,33.0 L437.3,32.0 L438.5,31.0 L439.8,30.0 L441.0,29.1 L442.0,28.8 L444.0,28.8 L446.0,28.9 L448.0,28.9 L450.0,28.9 L452.0,28.8 L454.0,28.9 L456.0,28.8 L456.3,30.0 L455.0,30.7 L454.0,31.6 L453.0,32.5 L452.0,33.3 L450.9,34.0 L449.6,35.0 L448.2,36.0 L447.0,36.9 L446.0,37.6 L445.0,38.5 L444.0,39.3 L442.8,40.0 L441.5,41.0 L440.3,42.0 L439.0,42.9 L438.0,43.6 L437.0,44.4 L436.0,45.2 L434.8,46.0 L433.6,47.0 L432.4,48.0 L431.0,49.0 L430.0,49.7 L429.0,50.6 L428.0,51.4 L426.9,52.0 L425.5,53.0 L424.3,54.0 L423.0,55.0 L421.7,56.0 L420.5,57.0 L421.0,58.3 L422.0,59.0 L423.3,60.0 L424.6,61.0 L425.9,62.0 L427.0,62.8 L428.0,63.6 L429.0,64.4 L430.0,65.2 L431.0,66.0 L432.4,67.0 L433.7,68.0 L435.0,69.0 L436.0,69.8 L437.0,70.6 L438.0,71.4 L439.0,72.3 L440.0,73.1 L441.3,74.0 L442.6,75.0 L443.9,76.0 L445.0,76.7 L446.0,77.5 L447.0,78.4 L448.0,79.2 L449.1,80.0 L450.4,81.0 L451.7,82.0 L452.9,83.0 L454.0,83.8 L455.0,84.5 L456.0,85.3 L457.2,86.0 L457.0,87.2 Z M568.0,87.1 L566.0,87.2 L564.0,87.2 L562.0,87.2 L560.0,87.2 L558.0,87.1 L556.0,87.1 L554.0,87.1 L552.0,87.1 L550.0,87.1 L548.0,87.2 L546.0,87.2 L544.0,87.2 L542.0,87.2 L540.0,87.2 L538.0,87.2 L536.0,87.2 L534.0,87.2 L532.0,87.2 L530.0,87.2 L528.0,87.2 L526.0,87.1 L525.4,86.0 L525.4,84.0 L525.4,82.0 L525.4,80.0 L525.4,78.0 L525.4,76.0 L525.4,74.0 L525.4,72.0 L525.4,70.0 L525.4,68.0 L525.4,66.0 L525.4,64.0 L525.4,62.0 L525.4,60.0 L525.4,58.0 L525.4,56.0 L525.4,54.0 L525.4,52.0 L525.4,50.0 L525.4,48.0 L525.4,46.0 L525.4,44.0 L525.4,42.0 L525.4,40.0 L525.4,38.0 L525.4,36.0 L525.4,34.0 L525.4,32.0 L525.4,30.0 L526.0,29.0 L528.0,28.8 L530.0,28.8 L532.0,28.8 L534.0,28.8 L536.0,28.8 L538.0,28.8 L540.0,28.8 L542.0,28.8 L544.0,28.8 L546.0,28.8 L548.0,28.8 L550.0,28.8 L552.0,28.8 L554.0,28.8 L556.0,28.8 L558.0,28.8 L560.0,28.8 L562.0,28.9 L564.0,28.8 L566.0,28.9 L567.4,29.0 L569.0,29.2 L571.0,29.4 L573.0,29.6 L574.2,30.0 L576.0,30.4 L577.7,31.0 L579.0,31.4 L580.1,32.0 L582.0,32.9 L583.0,33.5 L584.0,34.3 L585.0,35.1 L586.0,36.0 L587.0,37.0 L588.0,38.2 L589.0,39.4 L590.0,40.9 L590.6,42.0 L591.2,43.0 L592.0,45.0 L592.4,46.0 L592.8,48.0 L593.1,49.0 L593.6,51.0 L593.6,53.0 L593.8,55.0 L593.9,57.0 L593.9,59.0 L593.9,61.0 L593.7,63.0 L593.6,65.0 L593.2,67.0 L592.8,68.0 L592.4,70.0 L591.9,71.0 L591.2,73.0 L590.6,74.0 L590.0,75.1 L589.0,76.6 L588.0,77.8 L587.1,79.0 L586.2,80.0 L585.0,80.9 L584.0,81.6 L583.0,82.5 L582.0,83.0 L580.0,83.9 L579.0,84.4 L577.4,85.0 L576.0,85.5 L574.2,86.0 L573.0,86.4 L571.0,86.6 L569.0,86.9 L568.0,87.1 Z M628.0,87.2 L626.0,87.2 L624.0,87.2 L622.0,87.1 L620.0,87.1 L619.0,86.9 L618.5,85.0 L618.5,83.0 L618.4,81.0 L618.4,79.0 L618.4,77.0 L618.5,75.0 L618.5,73.0 L618.5,71.0 L618.5,69.0 L618.5,67.0 L618.5,65.0 L618.5,63.0 L618.5,61.0 L618.5,59.0 L618.4,57.0 L618.4,55.0 L618.5,53.0 L618.5,51.0 L618.5,49.0 L618.5,47.0 L618.5,45.0 L618.5,43.0 L618.5,41.0 L618.5,39.0 L618.5,37.0 L618.5,35.0 L618.5,33.0 L618.5,31.0 L619.0,29.0 L620.0,28.9 L622.0,28.9 L624.0,28.9 L626.0,28.9 L628.0,29.0 L628.7,30.0 L628.7,32.0 L628.7,34.0 L628.7,36.0 L628.7,38.0 L628.7,40.0 L628.7,42.0 L628.7,44.0 L628.7,46.0 L628.7,48.0 L628.7,50.0 L628.7,52.0 L628.7,54.0 L628.7,56.0 L628.7,58.0 L628.7,60.0 L628.7,62.0 L628.7,64.0 L628.7,66.0 L628.7,68.0 L628.7,70.0 L628.7,72.0 L628.7,74.0 L628.7,76.0 L628.7,78.0 L628.7,80.0 L628.7,82.0 L628.7,84.0 L628.7,86.0 L628.0,87.2 Z M727.0,87.1 L725.0,87.0 L723.0,87.1 L721.0,87.1 L719.0,87.0 L717.8,87.0 L716.6,86.0 L716.0,84.6 L715.2,83.0 L714.5,82.0 L714.0,80.8 L713.1,79.0 L712.5,78.0 L712.0,76.9 L711.0,75.1 L710.4,74.0 L709.8,73.0 L709.0,71.4 L708.3,70.0 L707.6,69.0 L707.0,67.7 L706.1,66.0 L705.4,65.0 L704.9,64.0 L704.0,62.4 L703.3,61.0 L702.7,60.0 L702.0,58.7 L701.0,57.1 L700.3,56.0 L699.7,55.0 L699.0,53.6 L698.1,52.0 L697.5,51.0 L697.0,49.9 L696.0,48.1 L695.4,47.0 L694.8,46.0 L694.0,44.5 L693.1,43.0 L692.5,42.0 L691.0,41.8 L690.4,43.0 L689.7,44.0 L689.0,45.3 L688.1,47.0 L687.5,48.0 L686.9,49.0 L686.0,50.6 L685.2,52.0 L684.5,53.0 L683.9,54.0 L683.0,55.6 L682.2,57.0 L681.7,58.0 L681.0,59.3 L680.1,61.0 L679.6,62.0 L679.0,63.1 L678.0,64.9 L677.4,66.0 L676.7,67.0 L676.0,68.3 L675.0,70.0 L674.5,71.0 L673.9,72.0 L673.0,73.6 L672.2,75.0 L671.7,76.0 L671.0,77.3 L670.1,79.0 L669.6,80.0 L669.0,81.0 L668.0,82.7 L667.2,84.0 L666.6,85.0 L665.9,86.0 L664.0,87.0 L662.0,87.0 L660.0,87.0 L658.5,87.0 L657.0,87.0 L655.9,87.0 L654.8,87.0 L655.0,85.1 L655.6,84.0 L656.2,83.0 L657.0,81.6 L657.9,80.0 L658.5,79.0 L659.1,78.0 L660.0,76.5 L660.8,75.0 L661.5,74.0 L662.0,73.0 L663.0,71.4 L663.8,70.0 L664.4,69.0 L665.0,67.9 L666.0,66.1 L666.6,65.0 L667.2,64.0 L668.0,62.6 L668.9,61.0 L669.5,60.0 L670.1,59.0 L671.0,57.5 L671.8,56.0 L672.5,55.0 L673.0,54.0 L674.0,52.3 L674.7,51.0 L675.4,50.0 L676.0,48.9 L677.0,47.1 L677.6,46.0 L678.2,45.0 L679.0,43.6 L679.9,42.0 L680.5,41.0 L681.1,40.0 L682.0,38.4 L682.8,37.0 L683.4,36.0 L684.0,34.9 L685.0,33.1 L685.6,32.0 L686.2,31.0 L687.0,29.5 L688.0,28.9 L690.0,28.9 L692.0,28.8 L694.0,28.9 L695.3,29.0 L696.8,30.0 L697.4,31.0 L698.0,32.1 L699.0,33.8 L699.7,35.0 L700.4,36.0 L701.0,37.3 L702.0,38.9 L702.5,40.0 L703.2,41.0 L704.0,42.6 L704.8,44.0 L705.5,45.0 L706.1,46.0 L707.0,47.7 L707.7,49.0 L708.3,50.0 L709.0,51.3 L710.0,53.0 L710.5,54.0 L711.1,55.0 L712.0,56.7 L712.7,58.0 L713.4,59.0 L714.0,60.0 L715.0,61.8 L715.6,63.0 L716.3,64.0 L717.0,65.5 L717.9,67.0 L718.5,68.0 L719.0,69.0 L720.0,70.8 L720.6,72.0 L721.3,73.0 L722.0,74.3 L723.0,76.0 L724.0,77.7 L724.7,79.0 L725.3,80.0 L726.0,81.4 L726.8,83.0 L727.4,84.0 L728.0,85.2 L728.0,86.9 L727.0,87.1 Z M829.0,87.1 L828.0,87.0 L826.0,87.0 L824.0,87.0 L822.1,86.0 L822.2,84.0 L822.2,82.0 L822.3,80.0 L822.3,78.0 L822.3,76.0 L822.3,74.0 L822.3,72.0 L822.3,70.0 L822.3,68.0 L822.3,66.0 L822.2,64.0 L822.2,62.0 L822.2,60.0 L822.2,58.0 L822.2,56.0 L822.2,54.0 L822.2,52.0 L822.2,50.0 L822.2,48.0 L822.2,46.0 L822.2,44.0 L822.2,42.0 L821.0,41.5 L820.0,42.9 L819.0,43.9 L818.0,45.0 L817.2,46.0 L816.4,47.0 L815.5,48.0 L814.7,49.0 L813.8,50.0 L813.0,51.0 L812.0,52.2 L811.0,53.4 L810.0,54.5 L809.0,55.7 L808.0,56.8 L807.1,58.0 L806.3,59.0 L805.4,60.0 L804.5,61.0 L803.6,62.0 L802.8,63.0 L802.0,64.1 L801.0,65.3 L800.0,66.5 L799.0,67.7 L798.0,68.8 L797.0,70.0 L796.2,71.0 L795.3,72.0 L794.3,73.0 L793.0,73.3 L791.0,73.1 L790.0,72.1 L789.1,71.0 L788.3,70.0 L787.4,69.0 L786.5,68.0 L785.7,67.0 L784.8,66.0 L783.9,65.0 L783.0,63.9 L782.0,62.7 L781.0,61.6 L780.0,60.4 L779.0,59.2 L778.0,58.1 L777.2,57.0 L776.3,56.0 L775.4,55.0 L774.5,54.0 L773.7,53.0 L772.9,52.0 L772.0,50.8 L771.0,49.8 L770.0,48.7 L769.0,47.5 L768.0,46.3 L767.0,45.1 L766.1,44.0 L765.3,43.0 L764.4,42.0 L763.2,41.0 L762.9,41.0 L763.0,42.8 L763.0,43.3 L762.9,45.0 L762.9,47.0 L762.9,49.0 L762.9,51.0 L762.9,53.0 L762.9,55.0 L762.9,57.0 L762.9,59.0 L762.9,61.0 L763.0,63.0 L763.0,65.0 L762.9,67.0 L762.9,69.0 L762.9,71.0 L762.9,73.0 L762.8,75.0 L762.9,77.0 L762.9,79.0 L762.9,81.0 L762.9,83.0 L762.9,85.0 L762.3,87.0 L761.0,87.1 L759.0,87.0 L757.0,87.0 L755.8,87.0 L754.6,86.0 L754.6,84.0 L754.6,82.0 L754.6,80.0 L754.6,78.0 L754.6,76.0 L754.6,74.0 L754.6,72.0 L754.6,70.0 L754.6,68.0 L754.7,66.0 L754.7,64.0 L754.7,62.0 L754.6,60.0 L754.6,58.0 L754.6,56.0 L754.6,54.0 L754.6,52.0 L754.6,50.0 L754.6,48.0 L754.6,46.0 L754.7,44.0 L754.7,42.0 L754.7,40.0 L754.7,38.0 L754.7,36.0 L754.7,34.0 L754.6,32.0 L754.5,30.0 L755.6,29.0 L757.0,28.9 L759.0,28.9 L761.0,28.9 L763.0,29.0 L764.0,29.6 L765.0,30.7 L765.9,32.0 L766.7,33.0 L767.7,34.0 L768.6,35.0 L769.5,36.0 L770.4,37.0 L771.2,38.0 L772.0,39.0 L773.0,40.2 L774.0,41.3 L775.0,42.4 L776.0,43.6 L777.0,44.7 L778.0,45.9 L778.8,47.0 L779.7,48.0 L780.6,49.0 L781.5,50.0 L782.4,51.0 L783.2,52.0 L784.0,53.1 L785.0,54.2 L786.0,55.3 L787.0,56.5 L788.0,57.6 L789.0,58.8 L790.0,60.0 L790.9,61.0 L791.7,62.0 L793.0,62.5 L794.0,61.3 L795.0,60.2 L796.0,59.2 L796.9,58.0 L797.7,57.0 L798.6,56.0 L799.5,55.0 L800.3,54.0 L801.1,53.0 L802.0,51.8 L803.0,50.7 L804.0,49.6 L805.0,48.4 L806.0,47.3 L807.0,46.0 L807.8,45.0 L808.6,44.0 L809.5,43.0 L810.4,42.0 L811.3,41.0 L812.1,40.0 L813.0,38.9 L814.0,37.7 L815.0,36.6 L816.0,35.4 L817.0,34.3 L818.0,33.1 L818.9,32.0 L819.7,31.0 L820.6,30.0 L821.9,29.0 L823.0,28.9 L825.0,28.9 L827.0,29.0 L829.0,28.9 L830.0,29.2 L830.4,31.0 L830.4,33.0 L830.4,35.0 L830.3,37.0 L830.3,39.0 L830.4,41.0 L830.4,43.0 L830.4,45.0 L830.4,47.0 L830.4,49.0 L830.4,51.0 L830.4,53.0 L830.4,55.0 L830.4,57.0 L830.4,59.0 L830.4,61.0 L830.4,63.0 L830.4,65.0 L830.4,67.0 L830.4,69.0 L830.4,71.0 L830.4,73.0 L830.4,75.0 L830.4,77.0 L830.4,79.0 L830.4,81.0 L830.4,83.0 L830.4,85.0 L830.0,86.7 L829.0,87.1 Z M909.0,87.1 L907.0,87.4 L905.0,87.6 L903.0,87.7 L901.0,87.6 L899.0,87.6 L897.0,87.6 L895.0,87.6 L893.0,87.6 L891.0,87.6 L889.0,87.6 L887.0,87.6 L885.0,87.7 L883.0,87.5 L881.0,87.4 L879.0,87.1 L878.0,86.8 L876.0,86.5 L874.4,86.0 L873.0,85.5 L871.5,85.0 L870.0,84.4 L869.0,83.7 L867.6,83.0 L866.3,82.0 L865.0,81.0 L864.0,80.1 L863.0,79.1 L862.1,78.0 L861.4,77.0 L860.6,76.0 L860.0,74.9 L859.0,73.0 L858.6,72.0 L858.0,70.1 L857.7,69.0 L857.2,67.0 L857.0,65.9 L856.8,64.0 L856.5,62.0 L856.5,60.0 L856.5,58.0 L856.6,56.0 L856.7,54.0 L856.9,52.0 L857.1,51.0 L857.4,49.0 L857.8,47.0 L858.1,46.0 L858.8,44.0 L859.3,43.0 L860.0,41.7 L861.0,40.1 L861.7,39.0 L862.6,38.0 L863.5,37.0 L864.5,36.0 L865.7,35.0 L867.0,34.0 L868.0,33.3 L869.0,32.6 L870.3,32.0 L872.0,31.3 L873.0,30.8 L875.0,30.2 L876.0,29.8 L878.0,29.5 L880.0,29.2 L881.4,29.0 L883.0,28.7 L885.0,28.6 L887.0,28.6 L889.0,28.7 L891.0,28.7 L893.0,28.7 L895.0,28.6 L897.0,28.6 L899.0,28.6 L901.0,28.6 L903.0,28.6 L905.0,28.8 L906.9,29.0 L908.0,29.1 L910.0,29.4 L912.0,29.8 L913.0,30.2 L915.0,30.7 L916.0,31.2 L917.8,32.0 L919.0,32.6 L920.0,33.3 L922.0,34.7 L923.0,35.6 L924.0,36.5 L925.0,37.5 L926.0,38.6 L927.0,40.0 L927.6,41.0 L928.3,42.0 L929.0,43.6 L929.5,45.0 L930.0,46.3 L930.4,48.0 L930.8,50.0 L931.1,51.0 L931.3,53.0 L931.5,55.0 L931.6,57.0 L931.6,59.0 L931.6,61.0 L931.4,63.0 L931.3,65.0 L930.7,67.0 L930.3,69.0 L930.0,70.0 L929.3,72.0 L928.8,73.0 L928.0,74.7 L927.2,76.0 L926.5,77.0 L925.6,78.0 L924.8,79.0 L923.8,80.0 L922.7,81.0 L921.4,82.0 L920.0,83.0 L919.0,83.6 L918.0,84.2 L916.0,85.0 L915.0,85.4 L913.2,86.0 L912.0,86.4 L910.0,86.8 L909.0,87.1 Z M1019.0,87.1 L1017.0,87.0 L1015.0,87.1 L1013.0,87.1 L1012.0,86.8 L1011.0,86.0 L1010.0,84.9 L1009.0,84.0 L1008.0,82.9 L1007.0,81.9 L1006.0,80.9 L1005.0,80.0 L1004.0,79.0 L1003.0,78.0 L1002.0,76.9 L1001.0,75.9 L1000.0,74.9 L999.0,73.8 L998.0,72.8 L997.0,71.7 L996.0,70.7 L995.0,69.7 L994.0,68.7 L993.0,67.8 L992.0,66.8 L991.0,65.8 L990.0,64.8 L989.0,63.8 L988.0,62.7 L987.0,61.7 L986.0,60.7 L985.0,59.7 L984.0,58.6 L983.0,57.6 L982.0,56.6 L981.0,55.7 L980.0,54.7 L979.0,53.7 L978.0,52.8 L977.0,51.8 L976.0,50.8 L975.0,49.8 L974.0,48.8 L973.0,47.7 L972.0,46.8 L971.0,45.8 L970.0,44.7 L969.0,43.8 L968.0,42.9 L967.0,41.9 L966.0,40.8 L965.2,42.0 L965.2,44.0 L965.2,46.0 L965.1,48.0 L965.2,50.0 L965.2,52.0 L965.2,54.0 L965.2,56.0 L965.2,58.0 L965.2,60.0 L965.2,62.0 L965.2,64.0 L965.2,66.0 L965.2,68.0 L965.2,70.0 L965.2,72.0 L965.2,74.0 L965.2,76.0 L965.2,78.0 L965.2,80.0 L965.2,82.0 L965.2,84.0 L965.2,86.0 L964.2,87.0 L963.0,87.0 L961.2,87.0 L960.0,87.0 L958.0,87.0 L957.2,85.0 L957.2,83.0 L957.2,81.0 L957.2,79.0 L957.2,77.0 L957.2,75.0 L957.2,73.0 L957.2,71.0 L957.2,69.0 L957.2,67.0 L957.2,65.0 L957.2,63.0 L957.2,61.0 L957.2,59.0 L957.2,57.0 L957.1,55.0 L957.1,53.0 L957.1,51.0 L957.1,49.0 L957.1,47.0 L957.1,45.0 L957.2,43.0 L957.1,41.0 L957.1,39.0 L957.1,37.0 L957.1,35.0 L957.1,33.0 L957.1,31.0 L956.9,30.0 L957.9,29.0 L958.4,29.0 L960.0,29.0 L962.0,29.0 L964.0,29.0 L966.0,29.5 L967.0,30.5 L968.0,31.5 L969.0,32.6 L970.0,33.6 L971.0,34.6 L972.0,35.6 L973.0,36.6 L974.0,37.5 L975.0,38.6 L976.0,39.5 L977.0,40.5 L978.0,41.5 L979.0,42.5 L980.0,43.5 L981.0,44.5 L982.0,45.5 L983.0,46.5 L984.0,47.5 L985.0,48.6 L986.0,49.6 L987.0,50.6 L988.0,51.7 L989.0,52.7 L990.0,53.7 L991.0,54.6 L992.0,55.6 L993.0,56.6 L994.0,57.6 L995.0,58.5 L996.0,59.5 L997.0,60.5 L998.0,61.5 L999.0,62.6 L1000.0,63.6 L1001.0,64.6 L1002.0,65.6 L1003.0,66.6 L1004.0,67.6 L1005.0,68.6 L1006.0,69.6 L1007.0,70.6 L1008.0,71.6 L1009.0,72.6 L1010.0,73.6 L1011.0,74.7 L1012.0,75.4 L1012.3,74.0 L1012.3,72.0 L1012.3,70.0 L1012.3,68.0 L1012.4,66.0 L1012.4,64.0 L1012.4,62.0 L1012.4,60.0 L1012.4,58.0 L1012.4,56.0 L1012.4,54.0 L1012.4,52.0 L1012.4,50.0 L1012.4,48.0 L1012.4,46.0 L1012.4,44.0 L1012.4,42.0 L1012.4,40.0 L1012.4,38.0 L1012.4,36.0 L1012.4,34.0 L1012.4,32.0 L1012.3,30.0 L1014.0,29.1 L1016.0,29.1 L1018.0,29.1 L1020.0,29.6 L1020.2,31.0 L1020.2,33.0 L1020.2,35.0 L1020.2,37.0 L1020.2,39.0 L1020.2,41.0 L1020.2,43.0 L1020.2,45.0 L1020.2,47.0 L1020.1,49.0 L1020.1,51.0 L1020.1,53.0 L1020.2,55.0 L1020.2,57.0 L1020.2,59.0 L1020.2,61.0 L1020.3,63.0 L1020.3,65.0 L1020.3,67.0 L1020.2,69.0 L1020.2,71.0 L1020.2,73.0 L1020.2,75.0 L1020.2,77.0 L1020.2,79.0 L1020.3,81.0 L1020.3,83.0 L1020.2,85.0 L1020.0,86.5 L1019.0,87.1 Z M1088.0,87.0 L1086.0,87.0 L1084.0,87.0 L1082.0,87.0 L1080.0,87.0 L1078.0,87.0 L1076.0,87.0 L1074.0,86.9 L1072.0,87.0 L1070.0,87.0 L1068.0,87.0 L1066.0,87.0 L1064.0,87.0 L1062.0,87.0 L1060.0,87.0 L1058.0,87.0 L1056.0,87.0 L1054.0,87.0 L1052.0,86.9 L1050.0,86.9 L1048.0,86.7 L1047.7,85.0 L1047.6,83.0 L1047.6,81.0 L1047.6,79.0 L1047.6,77.0 L1047.6,75.0 L1047.7,73.0 L1047.7,71.0 L1047.7,69.0 L1047.7,67.0 L1047.7,65.0 L1047.7,63.0 L1047.7,61.0 L1047.7,59.0 L1047.7,57.0 L1047.7,55.0 L1047.7,53.0 L1047.7,51.0 L1047.7,49.0 L1047.7,47.0 L1047.7,45.0 L1047.7,43.0 L1047.7,41.0 L1047.7,39.0 L1047.7,37.0 L1047.7,35.0 L1047.7,33.0 L1047.7,31.0 L1048.0,29.4 L1050.0,29.1 L1052.0,29.1 L1054.0,29.0 L1056.0,29.0 L1058.0,29.0 L1060.0,29.1 L1062.0,29.1 L1064.0,29.1 L1066.0,29.1 L1068.0,29.1 L1070.0,29.1 L1072.0,29.1 L1074.0,29.0 L1076.0,29.0 L1078.0,29.0 L1080.0,29.0 L1082.0,29.0 L1084.0,29.0 L1086.0,29.1 L1088.0,29.1 L1090.0,29.2 L1092.0,29.4 L1094.0,29.6 L1095.6,30.0 L1097.0,30.3 L1099.0,30.8 L1100.0,31.2 L1101.8,32.0 L1103.0,32.5 L1104.0,33.1 L1105.4,34.0 L1106.7,35.0 L1107.9,36.0 L1109.0,37.0 L1109.9,38.0 L1110.7,39.0 L1111.4,40.0 L1112.2,41.0 L1113.0,42.5 L1113.6,44.0 L1114.1,45.0 L1114.7,47.0 L1115.0,48.4 L1115.3,50.0 L1115.6,52.0 L1115.9,54.0 L1116.0,55.0 L1116.1,57.0 L1116.1,59.0 L1116.1,61.0 L1116.0,62.0 L1115.7,64.0 L1115.4,66.0 L1115.0,67.9 L1114.6,69.0 L1114.1,71.0 L1113.6,72.0 L1113.0,73.4 L1112.2,75.0 L1111.4,76.0 L1110.7,77.0 L1110.0,78.0 L1109.0,79.2 L1108.0,80.2 L1106.0,81.7 L1105.0,82.5 L1104.0,83.2 L1102.2,84.0 L1101.0,84.5 L1099.8,85.0 L1098.0,85.5 L1096.5,86.0 L1095.0,86.3 L1093.0,86.5 L1091.0,86.7 L1089.0,87.0 L1088.0,87.0 Z M908.8,79.0 L910.0,78.6 L912.0,78.1 L913.0,77.6 L914.3,77.0 L915.9,76.0 L917.0,75.2 L918.0,74.2 L919.0,73.0 L919.7,72.0 L920.4,71.0 L921.0,69.9 L921.7,68.0 L922.1,67.0 L922.6,65.0 L922.9,63.0 L923.1,62.0 L923.3,60.0 L923.4,58.0 L923.3,56.0 L923.0,54.0 L922.8,53.0 L922.5,51.0 L922.0,49.0 L921.6,48.0 L921.0,46.2 L920.4,45.0 L919.7,44.0 L918.9,43.0 L918.0,41.9 L917.0,41.0 L915.6,40.0 L914.0,39.1 L913.0,38.5 L911.4,38.0 L910.0,37.6 L908.0,37.2 L906.2,37.0 L905.0,36.9 L903.0,36.8 L901.0,36.8 L899.0,36.8 L897.0,36.8 L895.0,36.7 L893.0,36.7 L891.0,36.7 L889.0,36.7 L887.0,36.8 L885.0,36.8 L883.0,36.8 L881.7,37.0 L880.0,37.3 L878.0,37.7 L877.0,38.1 L875.0,38.7 L874.0,39.3 L872.6,40.0 L871.3,41.0 L870.1,42.0 L869.2,43.0 L868.5,44.0 L867.8,45.0 L867.0,46.5 L866.4,48.0 L866.0,49.3 L865.6,51.0 L865.4,53.0 L865.0,54.7 L864.8,56.0 L864.8,58.0 L864.8,60.0 L864.9,62.0 L865.2,63.0 L865.5,65.0 L865.9,67.0 L866.2,68.0 L866.9,70.0 L867.4,71.0 L868.0,72.1 L869.0,73.3 L870.0,74.4 L871.0,75.3 L872.0,76.0 L873.7,77.0 L875.0,77.6 L876.0,78.1 L878.0,78.6 L879.3,79.0 L881.0,79.4 L883.0,79.6 L885.0,79.6 L887.0,79.6 L889.0,79.6 L891.0,79.6 L893.0,79.6 L895.0,79.7 L897.0,79.7 L899.0,79.7 L901.0,79.7 L903.0,79.7 L905.0,79.6 L907.0,79.4 L908.8,79.0 Z M1091.3,79.0 L1093.0,78.7 L1095.0,78.3 L1096.0,77.9 L1098.0,77.3 L1099.0,76.7 L1100.3,76.0 L1101.7,75.0 L1102.8,74.0 L1103.8,73.0 L1104.6,72.0 L1105.3,71.0 L1106.0,69.5 L1106.5,68.0 L1107.0,66.4 L1107.3,65.0 L1107.5,63.0 L1108.0,61.0 L1108.0,60.0 L1108.1,58.0 L1108.0,56.0 L1107.9,55.0 L1107.6,53.0 L1107.4,51.0 L1107.0,49.5 L1106.5,48.0 L1106.0,46.6 L1105.2,45.0 L1104.5,44.0 L1103.7,43.0 L1102.7,42.0 L1101.5,41.0 L1100.0,40.0 L1099.0,39.4 L1098.0,39.0 L1096.0,38.3 L1094.0,37.7 L1092.0,37.4 L1090.0,37.2 L1088.0,37.1 L1086.0,37.1 L1084.0,37.1 L1082.0,37.1 L1080.0,37.2 L1078.0,37.2 L1076.0,37.2 L1074.0,37.2 L1072.0,37.2 L1070.0,37.2 L1068.0,37.2 L1066.0,37.2 L1064.0,37.2 L1062.0,37.2 L1060.0,37.2 L1058.0,37.2 L1056.0,37.4 L1055.8,39.0 L1055.7,41.0 L1055.7,43.0 L1055.7,45.0 L1055.7,47.0 L1055.7,49.0 L1055.7,51.0 L1055.7,53.0 L1055.7,55.0 L1055.7,57.0 L1055.7,59.0 L1055.7,61.0 L1055.7,63.0 L1055.7,65.0 L1055.7,67.0 L1055.7,69.0 L1055.7,71.0 L1055.7,73.0 L1055.7,75.0 L1055.8,77.0 L1056.0,78.8 L1057.0,79.3 L1059.0,79.3 L1061.0,79.3 L1063.0,79.3 L1065.0,79.3 L1067.0,79.3 L1069.0,79.3 L1071.0,79.3 L1073.0,79.3 L1075.0,79.3 L1077.0,79.3 L1079.0,79.3 L1081.0,79.3 L1083.0,79.3 L1085.0,79.3 L1087.0,79.3 L1089.0,79.3 L1091.0,79.1 Z M71.8,52.0 L73.0,51.4 L74.0,50.5 L75.0,49.1 L75.4,48.0 L75.6,46.0 L75.5,44.0 L75.0,42.1 L74.3,41.0 L73.1,40.0 L72.0,39.5 L70.0,39.2 L68.0,39.1 L66.0,39.0 L64.0,39.0 L62.0,39.0 L60.0,39.0 L58.0,39.0 L56.0,39.0 L54.0,39.0 L52.0,39.0 L50.0,39.0 L48.0,39.0 L46.0,39.0 L44.0,39.0 L42.0,39.0 L40.0,39.0 L38.0,39.1 L36.0,39.1 L34.0,39.2 L32.0,39.2 L30.0,39.5 L29.8,41.0 L29.8,43.0 L29.8,45.0 L29.7,47.0 L29.7,49.0 L29.7,51.0 L30.0,52.4 L32.0,52.6 L34.0,52.6 L36.0,52.6 L38.0,52.6 L40.0,52.6 L42.0,52.6 L44.0,52.6 L46.0,52.6 L48.0,52.6 L50.0,52.6 L52.0,52.6 L54.0,52.6 L56.0,52.6 L58.0,52.6 L60.0,52.6 L62.0,52.6 L64.0,52.6 L66.0,52.6 L68.0,52.6 L70.0,52.5 L71.8,52.0 Z M572.9,76.0 L574.0,75.5 L575.3,75.0 L577.0,74.2 L578.0,73.4 L579.0,72.5 L580.0,71.5 L581.0,70.2 L581.6,69.0 L582.2,68.0 L582.8,66.0 L583.3,65.0 L583.5,63.0 L583.7,61.0 L583.8,59.0 L583.8,57.0 L583.6,55.0 L583.5,53.0 L583.3,51.0 L582.8,50.0 L582.3,48.0 L581.7,47.0 L581.0,45.6 L580.0,44.3 L579.0,43.3 L578.0,42.4 L577.0,41.7 L575.6,41.0 L574.0,40.4 L573.0,40.0 L571.0,39.5 L569.0,39.3 L567.0,39.2 L565.0,39.2 L563.0,39.2 L561.0,39.2 L559.0,39.2 L557.0,39.2 L555.0,39.2 L553.0,39.2 L551.0,39.2 L549.0,39.2 L547.0,39.2 L545.0,39.2 L543.0,39.3 L541.0,39.3 L539.0,39.3 L537.0,39.2 L535.7,40.0 L535.8,42.0 L535.7,44.0 L535.7,46.0 L535.7,48.0 L535.7,50.0 L535.7,52.0 L535.7,54.0 L535.7,56.0 L535.8,58.0 L535.8,60.0 L535.8,62.0 L535.8,64.0 L535.8,66.0 L535.7,68.0 L535.7,70.0 L535.8,72.0 L535.7,74.0 L535.7,76.0 L537.0,77.0 L539.0,77.0 L541.0,77.0 L543.0,76.9 L545.0,76.9 L547.0,76.8 L549.0,76.8 L551.0,76.8 L553.0,76.9 L555.0,76.9 L557.0,76.9 L559.0,76.9 L561.0,76.9 L563.0,76.9 L565.0,76.9 L567.0,76.9 L569.0,76.6 L571.0,76.4 L572.9,76.0 Z M71.3,77.0 L73.0,76.6 L74.8,76.0 L76.0,75.1 L77.0,74.0 L77.5,73.0 L77.9,71.0 L77.9,69.0 L77.6,67.0 L77.0,65.8 L76.0,64.7 L75.0,64.0 L73.0,63.4 L71.9,63.0 L70.0,62.6 L68.0,62.6 L66.0,62.6 L64.0,62.6 L62.0,62.5 L60.0,62.5 L58.0,62.5 L56.0,62.5 L54.0,62.5 L52.0,62.5 L50.0,62.5 L48.0,62.5 L46.0,62.6 L44.0,62.6 L42.0,62.6 L40.0,62.6 L38.0,62.6 L36.0,62.6 L34.0,62.6 L32.0,62.6 L30.0,62.8 L29.8,64.0 L29.8,66.0 L29.8,68.0 L29.8,70.0 L29.8,72.0 L29.7,74.0 L29.7,76.0 L30.3,77.0 L32.0,77.1 L34.0,77.1 L36.0,77.1 L38.0,77.1 L40.0,77.1 L42.0,77.1 L44.0,77.1 L46.0,77.1 L48.0,77.1 L50.0,77.1 L52.0,77.1 L54.0,77.1 L56.0,77.1 L58.0,77.1 L60.0,77.1 L62.0,77.1 L64.0,77.1 L66.0,77.1 L68.0,77.1 L70.0,77.1 L71.3,77.0 Z M414.0,169.7 L412.0,169.6 L410.0,169.6 L408.0,169.6 L406.0,169.6 L404.0,169.6 L402.0,169.6 L400.0,169.6 L398.0,169.6 L396.0,169.6 L394.0,169.6 L392.0,169.6 L390.0,169.6 L388.0,169.6 L386.0,169.6 L384.0,169.6 L382.0,169.6 L380.0,169.6 L378.0,169.6 L376.0,169.6 L374.0,169.6 L372.6,169.0 L372.7,167.0 L372.7,165.0 L372.7,163.0 L372.7,161.0 L372.7,159.0 L372.7,157.0 L372.7,155.0 L372.7,153.0 L372.7,151.0 L372.7,149.0 L372.7,147.0 L372.7,145.0 L372.7,143.0 L372.7,141.0 L372.7,139.0 L372.7,137.0 L372.7,135.0 L372.7,133.0 L372.7,131.0 L373.0,129.3 L375.0,129.0 L377.0,129.0 L378.3,129.0 L379.2,129.0 L379.7,131.0 L379.7,133.0 L379.8,135.0 L379.8,137.0 L379.9,139.0 L379.9,141.0 L379.9,143.0 L379.9,145.0 L379.8,147.0 L379.8,149.0 L379.8,151.0 L379.9,153.0 L379.9,155.0 L379.9,157.0 L379.9,159.0 L380.0,161.0 L380.0,162.6 L382.0,163.0 L383.0,163.0 L385.0,163.0 L387.0,163.0 L389.0,163.0 L391.0,163.0 L393.0,163.0 L395.0,163.0 L397.0,163.0 L399.0,163.0 L400.0,163.0 L402.0,163.0 L403.0,163.0 L405.0,162.9 L407.0,162.9 L409.0,162.9 L411.0,162.8 L413.0,162.8 L414.5,163.0 L414.6,165.0 L414.6,167.0 L414.7,169.0 Z M535.0,169.6 L533.0,169.7 L531.0,169.7 L529.0,169.7 L527.0,169.3 L526.3,168.0 L525.7,167.0 L525.0,165.7 L524.1,164.0 L523.5,163.0 L522.8,162.0 L522.0,160.5 L521.2,159.0 L520.5,158.0 L520.0,157.0 L519.0,155.3 L518.4,154.0 L517.7,153.0 L517.0,151.5 L516.3,150.0 L515.6,149.0 L515.0,147.9 L514.0,146.3 L513.3,145.0 L512.6,144.0 L512.0,142.8 L511.0,141.2 L510.4,140.0 L509.8,139.0 L509.0,137.7 L508.1,139.0 L507.5,140.0 L506.9,141.0 L506.0,142.6 L505.2,144.0 L504.5,145.0 L503.9,146.0 L503.0,147.8 L502.3,149.0 L501.6,150.0 L501.0,151.2 L500.0,152.9 L499.3,154.0 L498.7,155.0 L498.0,156.3 L497.1,158.0 L496.5,159.0 L495.9,160.0 L495.0,161.5 L494.2,163.0 L493.5,164.0 L492.4,166.0 L491.8,167.0 L491.0,168.4 L490.0,169.6 L488.0,169.7 L486.0,169.7 L484.0,169.7 L482.5,169.0 L483.2,168.0 L484.0,166.6 L484.9,165.0 L485.4,164.0 L486.0,163.0 L487.0,161.2 L487.6,160.0 L488.3,159.0 L489.0,157.7 L490.0,156.1 L490.6,155.0 L491.3,154.0 L492.0,152.8 L493.0,151.0 L493.5,150.0 L494.2,149.0 L495.0,147.4 L495.7,146.0 L496.3,145.0 L497.0,143.8 L498.0,142.1 L498.6,141.0 L499.3,140.0 L500.0,138.7 L501.0,137.1 L501.6,136.0 L502.3,135.0 L503.0,133.5 L503.8,132.0 L504.4,131.0 L505.7,129.0 L507.0,128.7 L509.0,128.8 L511.0,128.8 L512.6,130.0 L513.2,131.0 L514.0,132.4 L514.8,134.0 L515.4,135.0 L516.0,136.0 L517.0,137.7 L517.7,139.0 L518.3,140.0 L519.0,141.1 L520.0,142.8 L520.6,144.0 L521.3,145.0 L522.0,146.3 L523.0,147.9 L523.6,149.0 L524.3,150.0 L525.0,151.4 L526.0,153.0 L526.5,154.0 L527.2,155.0 L528.0,156.5 L528.8,158.0 L529.4,159.0 L530.0,160.1 L531.0,161.7 L531.7,163.0 L532.4,164.0 L533.0,165.0 L534.0,166.9 L534.5,168.0 L535.4,169.0 Z M645.0,169.1 L643.0,169.4 L641.0,169.6 L639.0,169.6 L637.0,169.6 L635.0,169.6 L633.0,169.6 L631.0,169.6 L629.0,169.6 L627.0,169.6 L625.0,169.6 L623.0,169.7 L621.0,169.7 L619.0,169.7 L617.0,169.7 L615.0,169.7 L613.0,169.7 L611.0,169.7 L609.0,169.7 L607.0,169.7 L605.0,169.8 L604.0,169.0 L604.1,168.0 L604.0,166.0 L604.0,164.0 L604.0,162.0 L604.0,160.0 L603.9,158.0 L604.0,156.0 L604.0,154.0 L604.0,153.0 L604.0,151.0 L604.0,149.0 L604.0,147.0 L604.0,145.3 L604.0,144.0 L603.9,142.0 L603.9,140.0 L604.0,138.0 L604.0,136.7 L604.0,135.0 L604.1,133.0 L604.0,131.0 L603.9,130.0 L604.7,129.0 L606.0,128.9 L608.0,128.9 L610.0,128.8 L612.0,128.9 L614.0,128.9 L616.0,128.9 L618.0,128.8 L620.0,128.8 L622.0,128.8 L624.0,128.9 L626.0,128.9 L628.0,128.9 L630.0,128.9 L632.0,128.9 L634.0,128.9 L636.0,128.9 L638.0,128.9 L640.0,129.0 L641.3,129.0 L643.0,129.4 L645.0,129.7 L646.0,130.2 L647.4,131.0 L648.5,132.0 L649.5,133.0 L650.1,134.0 L650.8,136.0 L651.1,137.0 L651.4,139.0 L651.3,141.0 L651.0,142.8 L650.6,144.0 L650.0,145.2 L649.0,146.5 L648.0,147.3 L648.0,148.8 L649.0,149.5 L650.0,150.2 L651.0,151.2 L652.0,152.7 L652.5,154.0 L653.0,156.0 L653.2,157.0 L653.2,159.0 L653.0,160.2 L652.6,162.0 L652.0,163.8 L651.3,165.0 L650.5,166.0 L649.3,167.0 L648.0,167.8 L647.0,168.4 L645.2,169.0 Z M756.0,169.1 L754.0,169.4 L752.0,169.6 L750.0,169.6 L748.0,169.6 L746.0,169.5 L744.0,169.5 L742.0,169.5 L740.0,169.5 L738.0,169.5 L736.0,169.5 L734.0,169.6 L732.0,169.5 L730.0,169.3 L728.0,169.0 L726.0,168.5 L724.0,168.0 L722.0,167.4 L720.5,167.0 L719.9,166.0 L720.5,165.0 L721.0,163.4 L721.7,162.0 L722.9,161.0 L724.0,160.9 L725.0,161.3 L727.0,161.9 L728.0,162.4 L730.0,162.8 L732.0,162.9 L733.4,163.0 L735.0,163.1 L737.0,163.2 L739.0,163.3 L741.0,163.3 L743.0,163.3 L745.0,163.3 L747.0,163.3 L749.0,163.3 L751.0,163.3 L753.0,163.2 L754.0,163.0 L756.0,162.6 L757.0,161.8 L758.0,161.0 L758.8,159.0 L758.9,157.0 L758.3,155.0 L757.3,154.0 L756.0,153.3 L755.0,152.9 L753.0,152.5 L751.0,152.3 L749.0,152.3 L747.0,152.2 L745.0,152.3 L743.0,152.3 L741.0,152.3 L739.0,152.3 L737.0,152.3 L735.0,152.2 L733.0,152.2 L732.0,151.9 L730.0,151.5 L728.0,151.2 L727.0,150.7 L725.3,150.0 L724.0,149.3 L723.0,148.5 L722.0,147.5 L721.1,146.0 L720.7,145.0 L720.3,143.0 L720.2,141.0 L720.3,139.0 L720.5,137.0 L721.0,135.6 L721.6,134.0 L722.4,133.0 L723.5,132.0 L724.9,131.0 L726.0,130.6 L727.1,130.0 L729.0,129.6 L731.0,129.4 L732.4,129.0 L734.0,128.9 L736.0,128.9 L738.0,128.9 L740.0,128.9 L742.0,128.9 L744.0,128.9 L746.0,128.9 L748.0,128.9 L750.0,128.9 L752.0,129.0 L754.0,129.4 L756.0,129.7 L758.0,130.0 L759.0,130.3 L761.0,130.8 L762.0,131.3 L764.0,131.9 L764.3,133.0 L763.8,134.0 L763.0,135.9 L762.3,137.0 L761.0,137.4 L760.0,136.8 L758.0,136.3 L756.8,136.0 L755.0,135.6 L753.0,135.4 L751.0,135.3 L749.0,135.3 L747.0,135.2 L745.0,135.2 L743.0,135.3 L741.0,135.3 L739.0,135.3 L737.0,135.3 L735.0,135.3 L733.0,135.3 L731.0,135.7 L730.0,136.0 L728.3,137.0 L727.4,138.0 L727.0,139.1 L726.7,141.0 L727.0,142.2 L728.0,143.7 L729.0,144.6 L730.2,145.0 L732.0,145.5 L734.0,145.5 L736.0,145.7 L738.0,145.7 L740.0,145.7 L742.0,145.6 L744.0,145.6 L746.0,145.6 L748.0,145.6 L750.0,145.7 L752.0,145.9 L753.0,146.1 L755.0,146.5 L757.0,146.9 L758.0,147.3 L760.0,147.9 L761.0,148.6 L762.0,149.3 L763.0,150.2 L764.0,151.4 L765.0,153.0 L765.3,154.0 L765.6,156.0 L765.8,158.0 L765.7,160.0 L765.2,162.0 L764.7,163.0 L764.0,164.3 L763.0,165.5 L762.0,166.4 L761.0,167.2 L759.3,168.0 L758.0,168.5 L756.5,169.0 Z M641.5,145.0 L643.0,144.2 L644.0,143.0 L644.4,142.0 L644.6,140.0 L644.2,138.0 L643.6,137.0 L642.2,136.0 L641.0,135.5 L639.0,135.4 L637.0,135.5 L635.0,135.5 L633.0,135.5 L631.0,135.5 L629.0,135.5 L627.0,135.5 L625.0,135.6 L623.0,135.6 L621.0,135.6 L619.0,135.6 L617.0,135.6 L615.0,135.6 L613.0,135.6 L611.6,136.0 L611.5,138.0 L611.4,140.0 L611.4,142.0 L611.4,144.0 L612.0,145.4 L614.0,145.4 L616.0,145.4 L618.0,145.4 L620.0,145.4 L622.0,145.4 L624.0,145.5 L626.0,145.5 L628.0,145.5 L630.0,145.5 L632.0,145.4 L634.0,145.4 L636.0,145.4 L638.0,145.4 L640.0,145.4 L641.5,145.0 Z M254.0,151.0 L252.0,151.0 L250.0,151.0 L248.0,151.1 L246.0,151.0 L244.0,151.0 L242.0,151.0 L240.0,151.0 L238.0,151.0 L236.0,151.0 L234.0,151.0 L232.0,151.0 L230.0,151.0 L228.0,150.9 L226.0,150.9 L224.0,150.9 L222.0,150.8 L220.0,150.8 L218.0,150.8 L216.0,150.8 L214.0,150.8 L212.0,150.8 L210.0,150.8 L208.0,150.7 L206.0,150.7 L204.0,150.7 L202.0,150.6 L200.0,150.6 L198.0,150.6 L196.0,150.6 L194.0,150.6 L192.0,150.5 L190.0,150.5 L188.0,150.5 L186.0,150.5 L184.0,150.5 L182.0,150.5 L180.0,150.5 L178.0,150.5 L176.0,150.4 L174.0,150.4 L172.0,150.4 L170.0,150.4 L168.0,150.4 L166.0,150.4 L164.0,150.4 L162.0,150.3 L160.0,150.3 L158.0,150.3 L156.0,150.3 L154.0,150.3 L152.0,150.3 L150.0,150.3 L148.0,150.3 L146.0,150.3 L144.0,150.3 L142.0,150.2 L140.0,150.2 L138.0,150.2 L136.0,150.2 L134.0,150.2 L132.0,150.1 L130.0,150.1 L128.0,150.2 L126.0,150.1 L124.0,150.1 L122.0,150.1 L120.0,150.1 L118.0,150.1 L116.0,150.0 L115.0,150.0 L113.0,150.0 L111.0,149.9 L109.0,149.8 L107.0,149.8 L105.0,149.7 L103.0,149.7 L101.0,149.7 L99.0,149.6 L97.0,149.6 L95.0,149.6 L93.0,149.5 L91.0,149.5 L89.0,149.5 L87.0,149.4 L85.0,149.4 L83.0,149.3 L81.0,149.3 L79.0,149.1 L77.0,149.1 L75.0,149.0 L77.0,149.0 L79.0,149.0 L81.0,148.9 L83.0,148.9 L85.0,148.8 L87.0,148.8 L89.0,148.8 L91.0,148.8 L93.0,148.8 L95.0,148.8 L97.0,148.8 L99.0,148.8 L101.0,148.8 L103.0,148.8 L105.0,148.8 L107.0,148.7 L109.0,148.7 L111.0,148.7 L113.0,148.7 L115.0,148.7 L117.0,148.6 L119.0,148.7 L121.0,148.6 L123.0,148.6 L125.0,148.6 L127.0,148.6 L129.0,148.6 L131.0,148.6 L133.0,148.6 L135.0,148.5 L137.0,148.5 L139.0,148.5 L141.0,148.5 L143.0,148.5 L145.0,148.5 L147.0,148.5 L149.0,148.4 L151.0,148.4 L153.0,148.4 L155.0,148.4 L157.0,148.4 L159.0,148.4 L161.0,148.4 L163.0,148.4 L165.0,148.3 L167.0,148.3 L169.0,148.3 L171.0,148.3 L173.0,148.3 L175.0,148.3 L177.0,148.2 L179.0,148.2 L181.0,148.2 L183.0,148.2 L185.0,148.2 L187.0,148.2 L189.0,148.1 L191.0,148.1 L193.0,148.1 L195.0,148.0 L196.0,148.0 L197.0,148.0 L199.0,148.1 L200.5,148.0 L202.0,148.0 L204.0,147.9 L206.0,147.9 L208.0,147.9 L210.0,147.9 L212.0,147.8 L214.0,147.8 L216.0,147.8 L218.0,147.8 L220.0,147.8 L222.0,147.8 L224.0,147.8 L226.0,147.8 L228.0,147.7 L230.0,147.7 L232.0,147.7 L234.0,147.7 L236.0,147.7 L238.0,147.7 L240.0,147.7 L242.0,147.7 L244.0,147.7 L246.0,147.6 L248.0,147.6 L250.0,147.6 L252.0,147.6 L254.0,147.7 L256.0,147.7 L258.0,147.7 L260.0,147.7 L262.0,147.7 L264.0,147.7 L266.0,147.7 L268.0,147.7 L270.0,147.7 L272.0,147.7 L274.0,147.7 L276.0,147.7 L278.0,147.7 L280.0,147.7 L282.0,147.7 L284.0,147.7 L286.0,147.7 L288.0,147.7 L290.0,147.7 L292.0,147.7 L294.0,147.7 L296.0,147.7 L298.0,147.7 L300.0,147.7 L302.0,147.7 L304.0,147.7 L306.0,147.8 L308.0,147.8 L310.0,147.7 L312.0,147.7 L314.0,147.7 L316.0,147.7 L317.3,148.0 L317.6,150.0 L316.0,150.8 L314.0,150.8 L312.0,150.8 L310.0,150.8 L308.0,150.8 L306.0,150.8 L304.0,150.8 L302.0,150.9 L300.0,150.9 L298.0,150.8 L296.0,150.9 L294.0,150.9 L292.0,150.8 L290.0,150.9 L288.0,150.9 L286.0,150.9 L284.0,150.9 L282.0,150.9 L280.0,150.9 L278.0,150.9 L276.0,150.9 L274.0,150.9 L272.0,150.9 L270.0,150.9 L268.0,150.9 L266.0,150.9 L264.0,150.9 L262.0,150.9 L260.0,150.9 L258.0,150.9 L256.0,150.9 L254.3,151.0 Z M1000.0,150.0 L998.0,150.1 L996.0,150.1 L994.0,150.1 L992.0,150.2 L990.0,150.2 L988.0,150.2 L986.0,150.2 L984.0,150.2 L982.0,150.2 L980.0,150.2 L978.0,150.2 L976.0,150.3 L974.0,150.3 L972.0,150.3 L970.0,150.3 L968.0,150.3 L966.0,150.3 L964.0,150.3 L962.0,150.3 L960.0,150.3 L958.0,150.4 L956.0,150.4 L954.0,150.4 L952.0,150.4 L950.0,150.4 L948.0,150.4 L946.0,150.4 L944.0,150.5 L942.0,150.5 L940.0,150.5 L938.0,150.5 L936.0,150.5 L934.0,150.6 L932.0,150.6 L930.0,150.6 L928.0,150.6 L926.0,150.7 L924.0,150.7 L922.0,150.7 L920.0,150.6 L918.0,150.6 L916.0,150.6 L914.0,150.7 L912.0,150.7 L910.0,150.7 L908.0,150.7 L906.0,150.8 L904.0,150.7 L902.0,150.8 L900.0,150.8 L898.0,150.8 L896.0,150.8 L894.0,150.8 L892.0,150.8 L890.0,150.8 L888.0,150.8 L886.0,150.7 L884.0,150.7 L882.0,150.8 L880.0,150.8 L878.0,150.7 L876.0,150.6 L874.0,150.6 L872.0,150.6 L870.0,150.7 L868.0,150.7 L866.0,150.7 L864.0,150.7 L862.0,150.7 L860.0,150.7 L858.0,150.7 L856.0,150.7 L854.0,150.6 L852.0,150.5 L850.0,150.5 L848.0,150.5 L846.0,150.5 L844.0,150.5 L842.0,150.5 L840.0,150.5 L838.0,150.5 L836.0,150.5 L834.0,150.5 L832.0,150.5 L830.0,150.5 L828.0,150.5 L826.0,150.5 L824.0,150.5 L822.0,150.5 L820.0,150.5 L818.6,150.0 L819.0,148.2 L820.0,148.0 L822.0,148.0 L824.0,148.0 L826.0,148.0 L828.0,148.0 L830.0,148.0 L832.0,148.0 L834.0,148.0 L836.0,148.0 L838.0,148.1 L840.0,148.0 L842.0,148.0 L844.0,148.0 L846.0,148.1 L848.0,148.0 L850.0,148.0 L852.0,148.0 L854.0,147.8 L856.0,147.8 L858.0,147.8 L860.0,147.8 L862.0,147.8 L864.0,147.8 L866.0,147.8 L868.0,147.9 L870.0,147.9 L872.0,147.9 L874.0,147.9 L876.0,147.9 L878.0,147.8 L880.0,147.7 L882.0,147.7 L884.0,147.8 L886.0,147.8 L888.0,147.8 L890.0,147.7 L892.0,147.8 L894.0,147.7 L896.0,147.7 L898.0,147.7 L900.0,147.7 L902.0,147.7 L904.0,147.7 L906.0,147.8 L908.0,147.8 L910.0,147.8 L912.0,147.8 L914.0,147.8 L916.0,147.8 L918.0,147.8 L920.0,147.8 L922.0,147.8 L924.0,147.8 L926.0,147.8 L928.0,147.8 L930.0,147.9 L932.0,147.9 L934.0,147.9 L936.0,147.9 L938.0,147.9 L940.0,148.0 L942.0,148.0 L944.0,148.0 L946.0,148.0 L948.0,148.1 L950.0,148.2 L952.0,148.2 L954.0,148.2 L956.0,148.2 L958.0,148.2 L960.0,148.2 L962.0,148.3 L964.0,148.3 L966.0,148.4 L968.0,148.4 L970.0,148.4 L972.0,148.5 L974.0,148.4 L976.0,148.5 L978.0,148.5 L980.0,148.5 L982.0,148.5 L984.0,148.5 L986.0,148.6 L988.0,148.6 L990.0,148.6 L992.0,148.6 L994.0,148.6 L996.0,148.6 L998.0,148.7 L1000.0,148.7 L1002.0,148.7 L1004.0,148.7 L1006.0,148.7 L1008.0,148.7 L1010.0,148.7 L1012.0,148.7 L1014.0,148.7 L1016.0,148.7 L1018.0,148.7 L1020.0,148.7 L1022.0,148.8 L1024.0,148.8 L1026.0,148.8 L1028.0,148.8 L1030.0,148.8 L1032.0,148.8 L1034.0,148.9 L1036.0,148.9 L1038.0,148.9 L1040.0,148.9 L1042.0,148.9 L1044.0,148.9 L1046.0,149.0 L1048.0,149.0 L1049.8,149.0 L1048.0,149.1 L1046.0,149.1 L1044.0,149.2 L1042.0,149.3 L1040.0,149.3 L1038.0,149.4 L1036.0,149.5 L1034.0,149.4 L1032.0,149.5 L1030.0,149.5 L1028.0,149.5 L1026.0,149.6 L1024.0,149.7 L1022.0,149.8 L1020.0,149.8 L1018.0,149.8 L1016.0,149.8 L1014.0,149.7 L1012.0,149.8 L1010.0,149.8 L1008.0,149.7 L1006.0,149.8 L1004.0,149.9 L1002.0,150.0 L1000.0,150.0 Z M643.8,162.0 L645.0,161.1 L645.7,160.0 L646.0,158.6 L646.2,157.0 L646.0,155.2 L645.3,154.0 L644.2,153.0 L643.0,152.4 L641.1,152.0 L640.8,152.0 L639.0,152.1 L637.0,152.1 L635.0,152.1 L633.0,152.1 L631.0,152.1 L629.0,152.1 L627.0,152.1 L625.0,152.0 L623.0,152.0 L621.0,152.0 L619.0,152.1 L617.0,152.1 L615.0,152.2 L613.0,152.2 L611.5,153.0 L611.5,155.0 L611.5,157.0 L611.5,159.0 L611.5,161.0 L612.0,162.7 L614.0,162.8 L616.0,162.8 L618.0,162.8 L620.0,162.8 L622.0,162.8 L624.0,162.8 L626.0,162.8 L628.0,162.9 L630.0,162.9 L632.0,162.9 L634.0,163.0 L636.0,162.9 L638.0,162.9 L640.0,162.9 L642.0,162.6 L643.8,162.0 Z M229.0,232.0 L227.0,232.1 L225.6,232.0 L224.0,231.6 L222.4,231.0 L221.0,230.2 L220.0,229.2 L219.2,228.0 L218.7,227.0 L218.0,225.0 L217.8,223.0 L217.8,221.0 L218.0,219.8 L218.7,218.0 L219.3,217.0 L220.0,215.9 L221.1,215.0 L222.6,214.0 L224.0,213.5 L226.0,213.0 L227.0,212.9 L229.0,213.0 L230.0,213.2 L232.0,213.8 L233.0,214.3 L234.1,215.0 L235.1,216.0 L236.0,217.4 L236.6,219.0 L236.9,221.0 L237.1,222.0 L237.0,223.2 L236.7,225.0 L236.1,227.0 L235.5,228.0 L234.8,229.0 L233.9,230.0 L232.3,231.0 L231.0,231.5 L229.1,232.0 Z M262.0,232.1 L260.0,232.3 L258.0,232.2 L256.9,232.0 L255.0,231.3 L254.0,230.6 L253.0,229.7 L252.0,228.6 L251.2,227.0 L250.8,226.0 L250.2,224.0 L250.2,222.0 L250.6,220.0 L251.0,218.5 L251.7,217.0 L252.5,216.0 L253.5,215.0 L254.9,214.0 L256.0,213.5 L257.9,213.0 L259.0,212.8 L261.0,212.8 L262.2,213.0 L264.0,213.6 L265.0,214.0 L266.4,215.0 L267.3,216.0 L268.0,217.4 L268.0,218.3 L266.0,218.3 L265.0,217.0 L264.0,216.2 L263.0,215.5 L261.0,215.0 L260.0,215.0 L259.0,215.1 L257.0,215.6 L256.0,216.2 L255.0,217.0 L254.0,218.2 L253.1,220.0 L252.8,221.0 L252.7,223.0 L253.0,224.8 L253.4,226.0 L254.0,227.0 L255.0,228.1 L256.2,229.0 L258.0,229.8 L259.0,230.0 L261.0,230.1 L262.0,229.8 L263.9,229.0 L265.0,228.1 L265.9,227.0 L266.7,226.0 L267.5,226.0 L268.3,227.0 L267.6,228.0 L267.0,229.2 L266.0,230.3 L265.0,231.0 L263.0,231.9 L262.0,232.1 Z M296.0,232.1 L294.7,232.0 L293.4,231.0 L292.6,230.0 L291.8,229.0 L291.0,227.9 L290.0,226.6 L289.0,225.3 L288.0,224.0 L287.0,223.7 L286.0,224.8 L285.1,226.0 L285.1,228.0 L285.0,230.0 L285.0,231.2 L284.0,232.1 L282.9,232.0 L282.5,230.0 L282.5,228.0 L282.5,226.0 L282.5,224.0 L282.5,222.0 L282.5,220.0 L282.4,218.0 L282.4,216.0 L282.3,214.0 L283.2,213.0 L284.1,213.0 L285.1,214.0 L285.0,216.0 L285.1,218.0 L285.0,220.0 L286.0,221.4 L287.0,220.2 L288.0,219.2 L289.0,218.2 L290.0,217.1 L290.9,216.0 L291.9,215.0 L292.7,214.0 L293.9,213.0 L295.0,212.9 L295.7,214.0 L294.7,215.0 L294.0,216.0 L293.0,217.2 L292.0,218.3 L291.0,219.5 L290.0,220.7 L289.8,222.0 L290.6,223.0 L291.3,224.0 L292.0,225.0 L293.0,226.4 L294.0,227.8 L294.8,229.0 L295.5,230.0 L296.4,231.0 L296.0,232.1 Z M330.0,232.2 L328.6,232.0 L328.2,230.0 L328.1,228.0 L328.1,226.0 L328.0,224.0 L328.0,222.0 L328.1,220.0 L328.1,218.0 L328.1,216.0 L328.0,214.4 L328.0,213.9 L329.0,212.9 L331.0,213.0 L333.0,213.0 L335.0,212.9 L336.1,213.0 L338.0,213.4 L339.4,214.0 L340.5,215.0 L341.0,216.0 L341.5,218.0 L341.5,220.0 L341.0,221.7 L340.3,223.0 L339.1,224.0 L338.0,224.5 L336.0,224.9 L334.0,224.9 L332.0,225.0 L331.0,225.5 L330.9,227.0 L330.8,229.0 L330.8,231.0 L330.0,232.2 Z M367.0,232.1 L365.0,232.5 L363.0,232.5 L361.0,232.2 L360.0,231.7 L358.5,231.0 L357.2,230.0 L356.3,229.0 L355.5,228.0 L355.0,226.7 L354.4,225.0 L354.2,223.0 L354.3,221.0 L354.7,219.0 L355.2,218.0 L356.0,216.5 L357.0,215.3 L358.0,214.4 L359.0,213.8 L361.0,213.0 L362.0,212.7 L364.0,212.6 L366.0,212.7 L367.1,213.0 L369.0,213.7 L370.0,214.4 L371.0,215.2 L372.0,216.4 L372.8,218.0 L373.4,219.0 L373.7,221.0 L373.9,223.0 L373.6,225.0 L373.0,226.9 L372.5,228.0 L371.7,229.0 L370.8,230.0 L369.5,231.0 L368.0,231.7 L367.0,232.1 Z M393.0,232.3 L391.8,232.0 L391.4,230.0 L391.3,228.0 L391.3,226.0 L391.3,224.0 L391.3,222.0 L391.3,220.0 L391.2,218.0 L391.2,216.0 L390.0,215.4 L388.0,215.4 L386.0,215.4 L385.2,214.0 L386.0,212.8 L388.0,212.9 L390.0,212.9 L392.0,212.8 L394.0,212.8 L396.0,212.8 L398.0,212.9 L399.4,213.0 L400.3,214.0 L399.9,215.0 L398.0,215.4 L396.0,215.5 L394.4,216.0 L394.3,218.0 L394.2,220.0 L394.2,222.0 L394.2,224.0 L394.2,226.0 L394.1,228.0 L394.1,230.0 L394.0,231.5 L393.0,232.3 Z M425.0,232.3 L423.0,232.2 L421.0,232.3 L419.0,232.3 L417.0,232.3 L415.0,232.3 L413.9,232.0 L413.6,230.0 L413.5,228.0 L413.6,226.0 L413.6,224.0 L413.6,222.0 L413.6,220.0 L413.6,218.0 L413.6,216.0 L413.5,214.0 L414.3,213.0 L416.0,212.9 L418.0,213.0 L420.0,213.0 L422.0,212.9 L424.0,212.9 L425.3,213.0 L426.0,214.0 L425.7,215.0 L424.0,215.4 L422.0,215.4 L420.0,215.4 L418.0,215.4 L416.6,216.0 L416.5,218.0 L416.5,220.0 L417.0,221.1 L419.0,221.1 L421.0,221.1 L423.0,221.1 L424.8,222.0 L424.0,223.6 L422.0,223.6 L420.0,223.6 L418.0,223.6 L416.8,224.0 L416.6,226.0 L416.6,228.0 L417.0,229.4 L419.0,229.5 L421.0,229.5 L423.0,229.6 L425.0,229.6 L425.9,231.0 L425.0,232.3 Z M455.0,232.0 L453.0,232.2 L452.0,231.4 L451.1,230.0 L450.4,229.0 L449.7,228.0 L449.0,226.8 L448.0,225.3 L447.2,224.0 L446.5,223.0 L445.8,222.0 L445.0,220.8 L444.0,219.1 L443.0,218.3 L442.7,220.0 L442.7,222.0 L442.7,224.0 L442.7,226.0 L442.7,228.0 L442.7,230.0 L442.3,232.0 L441.0,232.3 L440.0,231.6 L439.8,230.0 L439.8,228.0 L439.8,226.0 L439.8,224.0 L439.8,222.0 L439.8,220.0 L439.8,218.0 L439.7,216.0 L439.6,214.0 L440.3,213.0 L442.0,212.9 L443.0,213.1 L444.0,214.2 L445.0,215.8 L445.7,217.0 L446.3,218.0 L447.0,219.1 L448.0,220.7 L448.9,222.0 L449.6,223.0 L450.3,224.0 L451.0,225.2 L452.0,226.6 L452.8,225.0 L452.8,223.0 L452.8,221.0 L452.8,219.0 L452.8,217.0 L452.8,215.0 L453.0,213.3 L454.0,212.7 L455.0,213.0 L455.6,215.0 L455.6,217.0 L455.6,219.0 L455.6,221.0 L455.5,223.0 L455.5,225.0 L455.5,227.0 L455.5,229.0 L455.6,231.0 L455.0,232.0 Z M476.0,232.3 L475.0,232.0 L474.7,230.0 L474.7,228.0 L474.6,226.0 L474.6,224.0 L474.6,222.0 L474.6,220.0 L474.5,218.0 L474.5,216.0 L473.0,215.4 L471.0,215.4 L469.0,215.1 L468.5,214.0 L469.7,213.0 L471.0,212.9 L473.0,212.9 L475.0,212.9 L477.0,212.9 L479.0,212.9 L481.0,213.0 L482.6,213.0 L483.6,214.0 L483.0,215.3 L481.0,215.4 L479.0,215.4 L477.5,216.0 L477.5,218.0 L477.4,220.0 L477.4,222.0 L477.4,224.0 L477.4,226.0 L477.4,228.0 L477.4,230.0 L477.0,231.9 L476.0,232.3 Z M499.0,232.2 L497.4,232.0 L496.8,231.0 L496.9,229.0 L496.8,227.0 L496.8,225.0 L496.8,223.0 L496.9,221.0 L496.9,219.0 L496.9,217.0 L496.9,215.0 L497.0,213.5 L498.0,212.8 L499.0,213.1 L499.6,215.0 L499.6,217.0 L499.6,219.0 L499.7,221.0 L499.7,223.0 L499.7,225.0 L499.7,227.0 L499.7,229.0 L499.8,231.0 L499.0,232.2 Z M530.0,232.3 L528.0,232.1 L527.4,231.0 L527.0,229.8 L526.2,228.0 L525.7,227.0 L525.1,225.0 L524.6,224.0 L524.0,222.1 L523.5,221.0 L523.0,219.7 L522.3,218.0 L521.0,217.6 L520.5,219.0 L520.0,220.4 L519.4,222.0 L519.0,223.2 L518.3,225.0 L517.9,226.0 L517.2,228.0 L516.8,229.0 L516.2,231.0 L515.3,232.0 L514.0,232.3 L513.0,231.9 L513.0,230.8 L513.7,229.0 L514.2,228.0 L515.0,226.1 L515.4,225.0 L516.0,223.6 L516.5,222.0 L517.0,220.9 L517.7,219.0 L518.2,218.0 L518.8,216.0 L519.3,215.0 L520.0,213.3 L521.0,212.8 L522.2,213.0 L523.6,214.0 L524.0,215.0 L524.7,217.0 L525.2,218.0 L526.0,220.0 L526.4,221.0 L527.0,222.4 L527.5,224.0 L528.0,225.0 L528.8,227.0 L529.4,228.0 L530.0,229.7 L530.6,231.0 L530.0,232.3 Z M554.0,232.3 L552.0,232.3 L550.0,232.3 L548.0,232.3 L546.0,232.3 L544.0,232.1 L543.5,231.0 L543.6,229.0 L543.6,227.0 L543.5,225.0 L543.5,223.0 L543.5,221.0 L543.5,219.0 L543.5,217.0 L543.6,215.0 L544.0,213.0 L545.0,212.8 L546.5,214.0 L546.5,216.0 L546.5,218.0 L546.5,220.0 L546.5,222.0 L546.5,224.0 L546.5,226.0 L546.5,228.0 L547.0,229.5 L549.0,229.5 L551.0,229.5 L553.0,229.5 L554.8,230.0 L555.2,231.0 L554.5,232.0 Z M610.0,232.0 L608.0,232.2 L606.0,232.2 L604.0,232.2 L602.0,232.3 L600.2,232.0 L599.6,231.0 L599.7,229.0 L599.7,227.0 L599.7,225.0 L599.7,223.0 L599.7,221.0 L599.7,219.0 L599.7,217.0 L599.7,215.0 L600.0,213.2 L601.0,212.8 L603.0,212.9 L605.0,212.9 L607.0,212.9 L609.0,213.0 L610.0,213.2 L611.7,214.0 L612.7,215.0 L613.3,216.0 L613.5,218.0 L613.2,220.0 L612.4,221.0 L611.5,222.0 L612.6,223.0 L613.5,224.0 L614.0,225.2 L614.2,227.0 L614.0,228.3 L613.2,230.0 L612.3,231.0 L611.0,231.7 L610.0,232.0 Z M638.0,232.2 L636.0,232.5 L634.0,232.4 L632.0,232.0 L631.0,231.5 L630.0,230.9 L629.0,229.8 L628.1,228.0 L627.7,227.0 L627.6,225.0 L627.6,223.0 L627.6,221.0 L627.7,219.0 L627.7,217.0 L627.7,215.0 L628.0,213.2 L629.0,212.8 L630.0,213.0 L630.5,215.0 L630.6,217.0 L630.6,219.0 L630.6,221.0 L630.6,223.0 L630.7,225.0 L631.0,227.0 L631.6,228.0 L632.6,229.0 L634.0,229.6 L636.0,229.9 L638.0,229.1 L639.0,228.1 L639.7,227.0 L640.0,225.0 L640.0,223.0 L639.9,221.0 L640.0,219.0 L640.0,217.0 L640.0,215.0 L640.0,213.7 L641.0,212.8 L642.4,213.0 L642.9,215.0 L642.9,217.0 L642.9,219.0 L642.9,221.0 L642.9,223.0 L642.9,225.0 L642.7,227.0 L642.0,228.9 L641.4,230.0 L640.4,231.0 L639.0,231.7 L638.0,232.2 Z M660.0,232.1 L658.0,232.2 L657.4,231.0 L657.4,229.0 L657.4,227.0 L657.5,225.0 L657.5,223.0 L657.5,221.0 L657.5,219.0 L657.4,217.0 L657.4,215.0 L658.0,213.0 L659.0,212.8 L660.0,213.2 L660.4,215.0 L660.4,217.0 L660.4,219.0 L660.3,221.0 L660.3,223.0 L660.4,225.0 L660.4,227.0 L660.4,229.0 L660.5,231.0 L660.0,232.1 Z M685.0,232.3 L683.0,232.2 L681.0,232.2 L679.0,232.2 L677.0,232.3 L675.3,232.0 L674.9,231.0 L674.9,229.0 L675.0,227.0 L675.0,226.0 L675.0,224.0 L675.1,222.0 L675.0,220.0 L675.0,218.3 L675.0,217.0 L675.0,215.0 L675.0,213.6 L676.0,212.8 L677.3,213.0 L678.0,214.0 L677.9,215.0 L677.9,217.0 L677.9,219.0 L677.9,221.0 L677.9,223.0 L677.9,225.0 L678.0,227.0 L678.0,229.0 L679.0,229.6 L681.0,229.6 L683.0,229.7 L685.0,229.6 L686.1,230.0 L686.0,232.0 Z M708.0,232.1 L706.0,232.2 L704.0,232.2 L702.0,232.2 L700.0,232.1 L699.4,231.0 L699.5,229.0 L699.5,227.0 L699.5,225.0 L699.5,223.0 L699.5,221.0 L699.4,219.0 L699.5,217.0 L699.5,215.0 L700.0,213.0 L701.0,212.8 L703.0,212.9 L705.0,212.9 L707.0,212.9 L708.2,213.0 L710.0,213.3 L711.9,214.0 L713.0,214.6 L714.0,215.5 L715.0,216.8 L715.6,218.0 L716.0,219.0 L716.3,221.0 L716.5,223.0 L716.2,225.0 L716.0,226.0 L715.0,228.0 L714.3,229.0 L713.3,230.0 L712.0,230.9 L711.0,231.4 L709.0,232.0 L708.0,232.1 Z M755.0,232.1 L753.0,232.2 L752.5,231.0 L752.5,229.0 L752.5,227.0 L752.5,225.0 L752.5,223.0 L752.5,221.0 L752.5,219.0 L752.5,217.0 L752.0,215.5 L750.0,215.4 L748.0,215.4 L746.7,215.0 L747.0,213.0 L748.0,212.9 L750.0,212.9 L752.0,212.9 L754.0,212.9 L756.0,213.0 L758.0,213.0 L760.0,213.0 L761.0,213.1 L761.1,215.0 L760.0,215.4 L758.0,215.4 L756.0,215.4 L755.4,217.0 L755.4,219.0 L755.4,221.0 L755.4,223.0 L755.4,225.0 L755.4,227.0 L755.4,229.0 L755.4,231.0 L755.0,232.1 Z M789.0,232.1 L787.7,232.0 L787.1,230.0 L787.1,228.0 L787.0,226.0 L787.0,224.8 L786.0,223.5 L784.0,223.5 L782.0,223.5 L780.0,223.4 L778.0,223.5 L777.2,225.0 L777.2,227.0 L777.2,229.0 L777.3,231.0 L776.5,232.0 L775.0,232.2 L774.4,231.0 L774.5,229.0 L774.5,227.0 L774.5,225.0 L774.5,223.0 L774.5,221.0 L774.5,219.0 L774.5,217.0 L774.5,215.0 L775.0,213.0 L776.0,213.0 L777.0,213.3 L777.3,215.0 L777.3,217.0 L777.3,219.0 L777.8,221.0 L779.0,221.2 L781.0,221.1 L783.0,221.1 L785.0,221.1 L786.1,221.0 L786.9,219.0 L786.9,217.0 L786.9,215.0 L787.0,213.6 L788.0,212.8 L789.2,213.0 L789.8,215.0 L789.8,217.0 L789.8,219.0 L789.8,221.0 L789.8,223.0 L789.8,225.0 L789.8,227.0 L789.7,229.0 L789.8,231.0 L789.0,232.1 Z M816.0,232.2 L814.0,232.1 L812.0,232.1 L810.0,232.2 L808.0,232.2 L806.0,232.2 L804.9,232.0 L804.6,230.0 L804.6,228.0 L804.6,226.0 L804.6,224.0 L804.6,222.0 L804.6,220.0 L804.6,218.0 L804.6,216.0 L804.5,214.0 L805.4,213.0 L807.0,212.9 L809.0,213.0 L811.0,213.0 L813.0,213.0 L815.0,213.0 L816.0,212.9 L816.7,214.0 L816.0,215.4 L814.0,215.3 L812.0,215.4 L810.0,215.4 L808.0,215.5 L807.5,217.0 L807.5,219.0 L807.8,221.0 L809.0,221.2 L811.0,221.1 L813.0,221.1 L815.0,221.0 L815.5,223.0 L814.0,223.4 L812.0,223.4 L810.0,223.5 L808.0,223.6 L807.5,225.0 L807.6,227.0 L807.6,229.0 L809.0,229.6 L811.0,229.6 L813.0,229.6 L815.0,229.6 L816.5,230.0 L816.3,232.0 Z M850.0,232.2 L848.9,232.0 L848.3,230.0 L848.3,228.0 L848.3,226.0 L848.3,224.0 L848.3,222.0 L848.3,220.0 L848.3,218.0 L848.2,216.0 L848.1,214.0 L850.0,213.0 L852.0,213.1 L854.0,213.1 L856.0,213.1 L858.0,213.0 L859.0,213.0 L859.8,214.0 L859.0,215.3 L857.0,215.3 L855.0,215.3 L853.0,215.3 L851.0,215.6 L850.7,217.0 L850.8,219.0 L850.9,221.0 L852.0,221.5 L854.0,221.5 L856.0,221.5 L858.0,221.5 L858.5,223.0 L857.0,223.7 L855.0,223.6 L853.0,223.6 L851.0,224.0 L850.6,225.0 L850.7,227.0 L850.7,229.0 L850.7,231.0 L850.0,232.2 Z M881.0,232.2 L879.0,232.5 L877.0,232.2 L876.0,232.0 L874.4,231.0 L873.4,230.0 L872.7,229.0 L872.3,227.0 L872.2,225.0 L872.2,223.0 L872.2,221.0 L872.2,219.0 L872.2,217.0 L872.2,215.0 L872.9,213.0 L873.1,213.0 L874.4,214.0 L874.3,216.0 L874.3,218.0 L874.3,220.0 L874.3,222.0 L874.3,224.0 L874.4,226.0 L875.0,227.7 L876.0,228.9 L877.0,229.5 L878.8,230.0 L880.0,230.0 L881.0,229.8 L882.5,229.0 L883.5,228.0 L884.3,226.0 L884.4,224.0 L884.3,222.0 L884.3,220.0 L884.3,218.0 L884.3,216.0 L884.2,214.0 L885.0,212.9 L886.0,213.0 L886.7,215.0 L886.7,217.0 L886.7,219.0 L886.7,221.0 L886.7,223.0 L886.6,225.0 L886.5,227.0 L886.0,228.5 L885.1,230.0 L884.1,231.0 L883.0,231.6 L881.8,232.0 Z M934.0,232.1 L932.0,232.3 L930.1,232.0 L929.0,231.6 L927.6,231.0 L926.5,230.0 L925.9,229.0 L925.4,227.0 L925.3,225.0 L925.3,223.0 L925.3,221.0 L925.3,219.0 L925.3,217.0 L925.3,215.0 L926.0,213.0 L927.5,214.0 L927.4,216.0 L927.4,218.0 L927.4,220.0 L927.4,222.0 L927.4,224.0 L927.5,226.0 L928.0,227.5 L929.0,228.8 L930.0,229.6 L931.0,230.1 L933.0,230.3 L934.1,230.0 L935.7,229.0 L936.7,228.0 L937.4,227.0 L937.6,225.0 L937.6,223.0 L937.6,221.0 L937.6,219.0 L937.6,217.0 L937.5,215.0 L938.0,213.1 L939.0,213.0 L939.8,214.0 L939.7,216.0 L939.7,218.0 L939.7,220.0 L939.6,222.0 L939.6,224.0 L939.6,226.0 L939.3,228.0 L938.9,229.0 L938.0,230.3 L937.0,231.1 L935.0,232.0 L934.0,232.1 Z M142.0,232.1 L141.0,231.8 L139.0,231.4 L137.8,231.0 L136.7,230.0 L135.9,229.0 L135.4,227.0 L135.0,225.0 L135.0,223.0 L135.0,221.0 L135.0,220.0 L135.2,218.0 L135.2,216.0 L135.0,214.3 L135.0,213.9 L137.0,213.8 L137.0,215.0 L137.0,217.0 L137.1,219.0 L137.1,221.0 L137.1,223.0 L137.1,225.0 L137.2,227.0 L138.0,228.4 L139.0,229.5 L140.4,230.0 L142.0,230.3 L143.8,230.0 L145.0,229.6 L146.0,228.7 L147.0,227.2 L147.5,226.0 L147.6,224.0 L147.6,222.0 L147.5,220.0 L147.6,218.0 L147.6,216.0 L147.5,214.0 L149.0,213.5 L149.2,215.0 L149.3,217.0 L149.3,219.0 L149.3,221.0 L149.3,223.0 L149.3,225.0 L149.1,227.0 L148.8,228.0 L148.0,229.6 L147.0,230.7 L146.0,231.3 L144.0,231.8 L142.9,232.0 Z M179.0,231.8 L177.0,231.5 L176.0,230.3 L175.3,229.0 L174.6,228.0 L173.8,227.0 L173.0,225.7 L172.0,224.2 L171.3,223.0 L170.7,222.0 L169.9,221.0 L169.0,219.6 L168.0,218.1 L167.0,217.8 L166.5,219.0 L166.5,221.0 L166.5,223.0 L166.5,225.0 L166.6,227.0 L166.6,229.0 L166.7,231.0 L165.0,231.6 L164.8,230.0 L164.8,228.0 L164.9,226.0 L164.9,224.0 L164.9,222.0 L164.9,220.0 L164.8,218.0 L164.8,216.0 L164.6,214.0 L166.0,213.4 L167.9,214.0 L168.5,215.0 L169.2,216.0 L170.0,217.2 L171.0,218.8 L171.5,220.0 L172.3,221.0 L173.0,222.0 L174.0,223.5 L175.0,224.8 L175.5,226.0 L176.5,227.0 L177.4,227.0 L177.5,225.0 L177.6,223.0 L177.6,221.0 L177.7,219.0 L177.7,217.0 L177.7,215.0 L178.0,213.5 L179.5,214.0 L179.4,216.0 L179.5,218.0 L179.5,220.0 L179.5,222.0 L179.5,224.0 L179.5,226.0 L179.4,228.0 L179.4,230.0 L179.0,231.8 Z M196.0,232.0 L195.0,231.0 L195.2,229.0 L195.3,227.0 L195.3,225.0 L195.4,223.0 L195.4,221.0 L195.4,219.0 L195.3,217.0 L195.3,215.0 L195.0,214.0 L196.0,213.1 L197.4,214.0 L197.3,216.0 L197.3,218.0 L197.3,220.0 L197.3,222.0 L197.3,224.0 L197.3,226.0 L197.4,228.0 L198.0,229.9 L199.0,230.0 L200.0,230.0 L202.0,230.0 L204.0,230.0 L205.0,229.9 L205.7,231.0 L204.0,231.8 L202.0,231.8 L200.0,231.9 L198.0,231.9 L196.3,232.0 Z M906.0,232.2 L905.0,232.0 L904.6,230.0 L904.6,228.0 L904.6,226.0 L904.6,224.0 L904.6,222.0 L904.6,220.0 L904.5,218.0 L904.5,216.0 L903.0,215.2 L901.0,215.2 L899.0,215.0 L899.0,213.3 L901.0,213.1 L903.0,213.1 L905.0,213.0 L907.0,213.1 L909.0,213.1 L911.0,213.1 L913.0,213.6 L913.0,214.5 L912.0,215.3 L910.0,215.3 L908.0,215.3 L907.0,217.0 L907.0,218.5 L907.0,220.0 L906.9,222.0 L906.9,224.0 L906.9,226.0 L906.9,228.0 L906.9,230.0 L906.4,232.0 Z M966.0,232.0 L964.9,232.0 L963.8,231.0 L963.0,229.8 L962.0,228.2 L961.4,227.0 L960.8,226.0 L960.0,224.8 L958.0,224.4 L956.0,224.9 L955.7,226.0 L955.7,228.0 L955.7,230.0 L955.0,232.0 L954.0,232.0 L953.5,231.0 L953.6,229.0 L953.6,227.0 L953.6,225.0 L953.6,223.0 L953.6,221.0 L953.6,219.0 L953.6,217.0 L953.6,215.0 L954.0,213.2 L956.0,213.3 L958.0,213.3 L960.0,213.2 L962.0,213.3 L964.0,213.9 L965.0,214.6 L966.0,215.8 L966.4,217.0 L966.5,219.0 L966.2,221.0 L965.6,222.0 L964.8,223.0 L963.0,223.9 L962.4,225.0 L963.2,226.0 L964.0,227.0 L965.0,228.6 L966.0,230.0 L966.7,231.0 L966.0,232.0 Z M991.0,231.9 L989.0,231.9 L987.0,231.9 L985.0,231.9 L983.0,231.9 L981.0,232.0 L979.9,231.0 L979.9,229.0 L979.9,227.0 L979.9,225.0 L980.0,223.0 L979.9,221.0 L979.9,219.0 L979.9,217.0 L979.9,215.0 L980.0,213.6 L982.0,213.2 L984.0,213.2 L986.0,213.2 L988.0,213.2 L990.0,213.1 L991.6,214.0 L991.0,215.2 L989.0,215.2 L987.0,215.2 L985.0,215.1 L983.0,215.1 L982.3,217.0 L982.4,219.0 L982.5,221.0 L984.0,221.5 L986.0,221.4 L988.0,221.4 L990.0,221.4 L990.4,223.0 L989.0,223.3 L987.0,223.3 L985.0,223.3 L983.0,223.5 L982.3,225.0 L982.3,227.0 L982.4,229.0 L984.0,229.9 L986.0,229.9 L988.0,230.0 L989.0,230.0 L990.0,230.0 L991.1,230.0 L991.0,231.9 Z M229.1,230.0 L231.0,229.3 L232.0,228.6 L233.0,227.6 L234.0,226.0 L234.4,225.0 L234.7,223.0 L234.6,221.0 L234.0,219.3 L233.4,218.0 L232.6,217.0 L231.4,216.0 L230.0,215.3 L228.0,214.9 L226.2,215.0 L225.0,215.3 L223.6,216.0 L222.3,217.0 L221.5,218.0 L220.6,220.0 L220.2,222.0 L220.3,224.0 L220.8,226.0 L221.4,227.0 L222.2,228.0 L223.5,229.0 L225.0,229.8 L226.0,230.1 L228.0,230.2 L229.1,230.0 Z M337.0,222.0 L338.2,221.0 L338.8,219.0 L338.3,217.0 L337.4,216.0 L336.0,215.4 L334.0,215.4 L332.0,215.4 L330.7,216.0 L330.8,218.0 L330.8,220.0 L331.0,221.9 L332.0,222.4 L334.0,222.4 L336.0,222.3 L337.0,222.0 Z M367.3,229.0 L368.7,228.0 L369.6,227.0 L370.2,226.0 L370.7,224.0 L370.8,222.0 L370.5,220.0 L370.0,218.7 L369.0,217.4 L368.0,216.5 L367.0,215.9 L365.0,215.3 L363.0,215.3 L361.0,216.0 L360.0,216.5 L359.0,217.5 L358.0,219.0 L357.6,220.0 L357.2,222.0 L357.4,224.0 L357.9,226.0 L358.5,227.0 L359.5,228.0 L360.8,229.0 L362.0,229.5 L364.0,229.8 L366.0,229.5 L367.3,229.0 Z M607.1,221.0 L609.0,220.6 L610.0,219.5 L610.5,218.0 L610.0,216.6 L609.0,215.7 L607.0,215.5 L605.0,215.5 L603.0,215.6 L602.6,217.0 L602.6,219.0 L603.0,221.0 L605.0,221.1 L607.0,221.0 Z M709.8,229.0 L711.0,228.1 L712.0,227.2 L712.6,226.0 L713.1,225.0 L713.4,223.0 L713.4,221.0 L713.0,219.2 L712.3,218.0 L711.3,217.0 L710.0,216.1 L709.0,215.7 L707.0,215.5 L705.0,215.4 L703.0,215.5 L702.5,217.0 L702.5,219.0 L702.5,221.0 L702.4,223.0 L702.4,225.0 L702.4,227.0 L702.5,229.0 L704.0,229.6 L706.0,229.6 L708.0,229.5 L709.8,229.0 Z M962.5,222.0 L963.8,221.0 L964.3,220.0 L964.4,218.0 L964.0,217.0 L963.0,215.7 L961.0,215.2 L959.0,215.1 L957.0,215.1 L955.7,216.0 L955.7,218.0 L955.7,220.0 L955.9,222.0 L957.0,222.6 L959.0,222.6 L961.0,222.5 L962.5,222.0 Z M610.1,229.0 L611.0,227.5 L611.2,226.0 L610.7,225.0 L609.7,224.0 L608.0,223.5 L606.0,223.5 L604.0,223.4 L602.7,224.0 L602.7,226.0 L602.7,228.0 L603.0,229.4 L605.0,229.6 L607.0,229.6 L609.0,229.5 L610.1,229.0 Z M570.0,232.2 L568.1,232.0 L567.3,231.0 L568.0,229.2 L569.0,228.7 L570.0,229.1 L570.8,231.0 L570.0,232.2 Z M1006.0,232.3 L1004.9,232.0 L1004.4,230.0 L1005.7,229.0 L1006.2,229.0 L1007.4,230.0 L1007.0,231.7 L1006.0,232.3 Z"/></svg>