<svg xmlns="http://www.w3.org/2000/svg" viewBox="0 0 1136 168" fill="#E8ECF3" fill-rule="evenodd"><path d="M77.0,71.0 L75.0,71.5 L73.0,71.7 L71.0,71.7 L69.0,71.7 L67.0,71.7 L65.0,71.7 L63.0,71.7 L61.0,71.7 L59.0,71.7 L57.0,71.7 L55.0,71.7 L53.0,71.7 L51.0,71.7 L49.0,71.7 L47.0,71.7 L45.0,71.7 L43.0,71.7 L41.0,71.7 L39.0,71.7 L37.0,71.7 L35.0,71.7 L33.0,71.7 L31.0,71.7 L29.0,71.7 L27.0,71.7 L25.0,71.8 L23.0,71.7 L21.0,71.8 L19.8,71.0 L19.8,69.0 L19.8,67.0 L19.8,65.0 L19.8,63.0 L19.8,61.0 L19.8,59.0 L19.8,57.0 L19.8,55.0 L19.8,53.0 L19.8,51.0 L19.8,49.0 L19.8,47.0 L19.9,45.0 L19.9,43.0 L19.9,41.0 L19.9,39.0 L19.9,37.0 L19.8,35.0 L19.8,33.0 L19.8,31.0 L19.7,29.0 L19.7,27.0 L19.8,25.0 L19.8,23.0 L19.8,21.0 L19.8,19.0 L19.8,17.0 L19.7,15.0 L20.6,14.0 L22.0,13.8 L24.0,13.8 L26.0,13.7 L28.0,13.7 L30.0,13.8 L32.0,13.8 L34.0,13.8 L36.0,13.8 L38.0,13.8 L40.0,13.8 L42.0,13.8 L44.0,13.8 L46.0,13.8 L48.0,13.8 L50.0,13.8 L52.0,13.8 L54.0,13.8 L56.0,13.8 L58.0,13.8 L60.0,13.8 L62.0,13.9 L64.0,13.9 L66.0,13.9 L68.0,13.8 L70.0,13.8 L71.7,14.0 L73.0,14.2 L75.0,14.5 L76.5,15.0 L78.0,15.5 L79.0,16.1 L80.5,17.0 L81.7,18.0 L82.9,19.0 L83.8,20.0 L84.5,21.0 L85.1,22.0 L85.8,24.0 L86.1,25.0 L86.4,27.0 L86.5,29.0 L86.5,31.0 L86.4,33.0 L86.0,34.7 L85.5,36.0 L84.9,37.0 L84.0,38.4 L83.0,39.5 L82.0,40.4 L81.0,41.6 L81.0,42.1 L82.7,43.0 L84.0,43.9 L85.0,44.7 L86.0,45.7 L86.8,47.0 L87.4,48.0 L88.0,49.6 L88.4,51.0 L88.7,53.0 L88.9,55.0 L88.8,57.0 L88.5,59.0 L88.2,61.0 L87.7,62.0 L87.0,63.7 L86.2,65.0 L85.4,66.0 L84.4,67.0 L83.2,68.0 L82.0,68.7 L81.0,69.4 L79.7,70.0 L78.0,70.7 L77.0,71.0 Z M175.0,71.3 L173.0,71.7 L171.0,71.7 L169.0,71.7 L167.0,71.7 L165.0,71.7 L163.0,71.7 L161.0,71.7 L159.0,71.7 L157.0,71.7 L155.0,71.7 L153.0,71.7 L151.0,71.7 L149.0,71.7 L147.0,71.7 L145.0,71.7 L143.0,71.7 L141.0,71.7 L139.0,71.7 L137.0,71.7 L135.0,71.7 L133.0,71.8 L131.0,71.8 L129.0,71.8 L127.0,71.8 L125.0,71.7 L123.0,71.7 L121.0,71.7 L119.0,71.7 L117.9,71.0 L118.0,69.0 L117.9,67.0 L117.9,65.0 L117.9,63.0 L117.9,61.0 L117.8,59.0 L117.8,57.0 L117.8,55.0 L117.8,53.0 L117.8,51.0 L117.9,49.0 L118.0,47.0 L118.0,45.0 L118.1,43.0 L118.1,41.0 L118.0,39.0 L118.0,37.0 L118.0,35.0 L117.9,33.0 L117.9,31.0 L117.9,29.0 L117.9,27.0 L117.9,25.0 L117.9,23.0 L117.9,21.0 L117.9,19.0 L117.9,17.0 L117.7,15.0 L118.5,14.0 L120.0,13.8 L122.0,13.7 L124.0,13.7 L126.0,13.7 L127.8,14.0 L128.4,15.0 L128.4,17.0 L128.4,19.0 L128.4,21.0 L128.4,23.0 L128.4,25.0 L128.4,27.0 L128.4,29.0 L128.4,31.0 L128.4,33.0 L128.4,35.0 L128.4,37.0 L128.4,39.0 L128.4,41.0 L128.4,43.0 L128.4,45.0 L128.4,47.0 L128.4,49.0 L128.4,51.0 L128.4,53.0 L128.4,55.0 L128.4,57.0 L128.4,59.0 L128.4,61.0 L130.0,61.7 L132.0,61.7 L134.0,61.8 L136.0,61.8 L138.0,61.8 L140.0,61.7 L142.0,61.7 L144.0,61.7 L146.0,61.7 L148.0,61.7 L150.0,61.7 L152.0,61.7 L154.0,61.7 L156.0,61.8 L158.0,61.8 L160.0,61.8 L162.0,61.7 L164.0,61.7 L166.0,61.7 L168.0,61.7 L170.0,61.7 L172.0,61.7 L174.0,61.7 L175.0,62.6 L175.1,64.0 L175.2,66.0 L175.2,68.0 L175.2,70.0 L175.0,71.3 Z M274.0,71.9 L272.0,71.8 L270.0,71.8 L268.0,71.8 L266.0,71.7 L264.0,71.7 L262.4,71.0 L261.9,70.0 L261.0,68.5 L260.2,67.0 L259.7,66.0 L259.0,64.7 L258.2,63.0 L257.6,62.0 L257.0,61.0 L256.0,59.3 L255.3,58.0 L254.7,57.0 L254.0,55.7 L253.1,54.0 L252.5,53.0 L252.0,52.0 L251.0,50.3 L250.3,49.0 L249.7,48.0 L249.0,46.6 L248.1,45.0 L247.6,44.0 L247.0,42.8 L246.1,41.0 L245.5,40.0 L245.0,39.0 L244.0,37.0 L243.4,36.0 L242.9,35.0 L242.0,33.4 L241.2,32.0 L240.7,31.0 L240.0,29.6 L239.1,28.0 L238.2,27.0 L237.9,27.0 L237.0,28.5 L236.2,30.0 L235.7,31.0 L235.0,32.3 L234.0,33.9 L233.5,35.0 L232.8,36.0 L232.0,37.4 L231.1,39.0 L230.6,40.0 L230.0,41.0 L229.0,42.8 L228.5,44.0 L227.8,45.0 L227.0,46.6 L226.3,48.0 L225.7,49.0 L225.0,50.3 L224.0,52.0 L223.5,53.0 L222.9,54.0 L222.0,55.7 L221.3,57.0 L220.7,58.0 L220.0,59.2 L219.0,60.9 L218.5,62.0 L217.8,63.0 L217.0,64.6 L216.3,66.0 L215.7,67.0 L215.0,68.2 L214.0,69.8 L213.5,71.0 L212.0,71.8 L210.0,71.8 L208.0,71.8 L206.0,71.8 L204.0,71.7 L202.0,71.7 L201.9,70.0 L202.6,69.0 L203.2,68.0 L204.0,66.5 L204.7,65.0 L205.4,64.0 L206.0,62.8 L207.0,61.0 L208.0,59.4 L208.7,58.0 L209.5,57.0 L210.0,55.8 L211.0,54.0 L212.0,52.2 L212.6,51.0 L213.3,50.0 L214.0,48.6 L214.7,47.0 L215.4,46.0 L216.0,44.8 L217.0,43.2 L217.7,42.0 L218.4,41.0 L219.0,39.8 L219.9,38.0 L220.5,37.0 L221.0,35.8 L221.9,34.0 L222.5,33.0 L223.0,32.0 L224.0,30.2 L224.6,29.0 L225.4,28.0 L226.0,26.8 L227.0,25.0 L227.6,24.0 L228.2,23.0 L229.0,21.4 L229.7,20.0 L230.3,19.0 L231.0,17.6 L231.8,16.0 L232.4,15.0 L233.3,14.0 L235.0,13.7 L237.0,13.7 L239.0,13.7 L241.0,13.7 L242.6,14.0 L243.5,15.0 L244.0,16.0 L245.0,17.9 L245.6,19.0 L246.2,20.0 L247.0,21.4 L247.9,23.0 L248.4,24.0 L249.0,25.0 L250.0,26.8 L250.7,28.0 L251.3,29.0 L252.0,30.3 L252.9,32.0 L253.5,33.0 L254.1,34.0 L255.0,35.7 L255.7,37.0 L256.3,38.0 L257.0,39.2 L258.0,41.0 L258.5,42.0 L259.2,43.0 L260.0,44.6 L260.8,46.0 L261.3,47.0 L262.0,48.4 L262.9,50.0 L263.4,51.0 L264.0,52.0 L265.0,53.8 L265.7,55.0 L266.3,56.0 L267.0,57.2 L268.0,58.8 L268.6,60.0 L269.2,61.0 L270.0,62.5 L270.8,64.0 L271.4,65.0 L272.0,66.2 L273.0,67.9 L273.5,69.0 L274.2,70.0 L274.0,71.9 Z M361.0,71.8 L359.0,71.8 L357.0,71.8 L355.0,71.8 L353.0,71.7 L351.0,71.7 L349.0,71.7 L347.0,71.7 L345.0,71.7 L343.0,71.8 L341.0,71.8 L339.0,71.8 L337.0,71.8 L335.0,71.8 L333.0,71.8 L331.0,71.8 L329.0,71.8 L327.0,71.8 L325.0,71.8 L323.0,71.9 L321.0,71.8 L319.0,71.6 L317.0,71.5 L315.0,71.1 L314.0,70.7 L312.0,70.2 L311.0,69.7 L309.4,69.0 L308.0,68.4 L307.0,67.6 L306.0,67.0 L304.6,66.0 L303.5,65.0 L302.5,64.0 L301.8,63.0 L301.0,61.7 L300.0,60.0 L299.4,59.0 L299.0,57.8 L298.3,56.0 L298.0,54.9 L297.4,53.0 L297.1,51.0 L296.9,50.0 L296.5,48.0 L296.4,46.0 L296.4,44.0 L296.4,42.0 L296.4,40.0 L296.4,38.0 L296.6,36.0 L297.0,34.4 L297.3,33.0 L297.7,31.0 L298.2,30.0 L298.8,28.0 L299.3,27.0 L300.0,25.7 L301.0,24.0 L301.5,23.0 L302.3,22.0 L303.2,21.0 L304.1,20.0 L305.4,19.0 L306.8,18.0 L308.0,17.3 L309.0,16.7 L310.6,16.0 L312.0,15.4 L313.3,15.0 L315.0,14.4 L317.0,14.2 L318.0,14.0 L320.0,13.7 L322.0,13.6 L324.0,13.7 L326.0,13.7 L328.0,13.7 L330.0,13.7 L332.0,13.7 L334.0,13.7 L336.0,13.7 L338.0,13.7 L340.0,13.7 L342.0,13.7 L344.0,13.8 L346.0,13.8 L348.0,13.8 L350.0,13.7 L352.0,13.7 L354.0,13.7 L356.0,13.7 L358.0,13.7 L360.0,13.8 L361.3,14.0 L361.7,16.0 L361.7,18.0 L361.7,20.0 L361.7,22.0 L361.0,24.0 L359.0,24.0 L357.0,24.0 L355.0,23.9 L353.0,23.9 L351.0,23.9 L349.0,23.9 L347.0,23.9 L345.0,24.0 L343.0,24.0 L342.0,24.0 L340.0,24.1 L338.0,24.1 L336.0,24.1 L334.0,24.0 L332.0,24.0 L330.0,24.0 L328.0,24.0 L326.0,24.0 L324.0,24.0 L322.0,24.1 L320.0,24.3 L318.0,24.5 L316.6,25.0 L315.0,25.6 L314.0,26.3 L312.8,27.0 L311.6,28.0 L310.7,29.0 L310.0,30.2 L309.1,32.0 L308.6,33.0 L308.1,35.0 L307.7,36.0 L307.5,38.0 L307.5,40.0 L307.5,42.0 L307.5,44.0 L307.4,46.0 L307.5,48.0 L307.7,50.0 L308.0,51.1 L308.5,53.0 L309.0,54.1 L309.9,56.0 L310.6,57.0 L311.5,58.0 L312.7,59.0 L314.0,59.7 L315.0,60.4 L316.9,61.0 L318.0,61.4 L320.0,61.5 L322.0,61.6 L324.0,61.7 L326.0,61.7 L328.0,61.7 L330.0,61.7 L332.0,61.7 L334.0,61.7 L336.0,61.7 L338.0,61.7 L340.0,61.7 L342.0,61.7 L344.0,61.7 L346.0,61.7 L348.0,61.7 L350.0,61.7 L352.0,61.7 L354.0,61.7 L356.0,61.7 L358.0,61.8 L360.0,61.8 L361.2,62.0 L361.7,64.0 L361.7,66.0 L361.7,68.0 L361.7,70.0 L361.0,71.8 Z M457.0,71.8 L455.0,71.7 L453.0,71.8 L451.0,71.8 L449.0,71.8 L447.0,71.8 L445.0,71.8 L443.0,71.8 L441.2,71.0 L440.0,70.1 L439.0,69.3 L438.0,68.5 L437.0,67.7 L436.0,66.8 L434.9,66.0 L433.6,65.0 L432.3,64.0 L431.0,63.1 L430.0,62.3 L429.0,61.5 L428.0,60.7 L427.0,59.9 L425.7,59.0 L424.4,58.0 L423.1,57.0 L422.0,56.3 L421.0,55.4 L420.0,54.6 L419.0,53.8 L417.9,53.0 L416.6,52.0 L415.3,51.0 L414.0,50.1 L413.0,49.4 L412.0,48.5 L411.0,47.7 L409.0,47.4 L407.0,47.4 L405.0,47.4 L403.0,47.4 L401.1,48.0 L401.2,50.0 L401.2,52.0 L401.2,54.0 L401.2,56.0 L401.2,58.0 L401.2,60.0 L401.2,62.0 L401.2,64.0 L401.2,66.0 L401.1,68.0 L401.1,70.0 L401.0,71.3 L399.0,71.8 L397.0,71.7 L395.0,71.7 L393.0,71.7 L391.0,71.6 L390.6,70.0 L390.5,68.0 L390.5,66.0 L390.5,64.0 L390.5,62.0 L390.5,60.0 L390.5,58.0 L390.5,56.0 L390.5,54.0 L390.5,52.0 L390.5,50.0 L390.5,48.0 L390.5,46.0 L390.5,44.0 L390.5,42.0 L390.5,40.0 L390.5,38.0 L390.5,36.0 L390.5,34.0 L390.5,32.0 L390.5,30.0 L390.5,28.0 L390.5,26.0 L390.5,24.0 L390.5,22.0 L390.5,20.0 L390.5,18.0 L390.5,16.0 L391.0,14.0 L392.0,13.7 L394.0,13.7 L396.0,13.7 L398.0,13.7 L400.0,13.7 L401.0,14.6 L401.2,16.0 L401.1,18.0 L401.1,20.0 L401.1,22.0 L401.1,24.0 L401.1,26.0 L401.1,28.0 L401.2,30.0 L401.2,32.0 L401.2,34.0 L401.2,36.0 L402.0,37.3 L404.0,37.3 L406.0,37.3 L408.0,37.3 L410.0,37.3 L411.0,36.7 L412.1,36.0 L413.4,35.0 L414.7,34.0 L416.0,33.1 L417.0,32.3 L418.0,31.5 L419.0,30.7 L420.0,30.0 L421.3,29.0 L422.5,28.0 L424.0,27.0 L425.3,26.0 L426.7,25.0 L428.0,24.1 L429.0,23.3 L430.0,22.5 L431.0,21.6 L432.0,20.9 L433.2,20.0 L434.5,19.0 L435.9,18.0 L437.0,17.2 L438.0,16.3 L439.0,15.5 L440.0,14.7 L441.1,14.0 L443.0,13.7 L445.0,13.7 L447.0,13.7 L449.0,13.7 L451.0,13.7 L453.0,13.7 L455.0,13.8 L456.4,14.0 L456.0,15.4 L454.8,16.0 L453.6,17.0 L452.3,18.0 L451.0,18.9 L450.0,19.6 L449.0,20.4 L448.0,21.2 L446.8,22.0 L445.5,23.0 L444.2,24.0 L443.0,24.8 L442.0,25.6 L441.0,26.4 L440.0,27.2 L438.9,28.0 L437.6,29.0 L436.3,30.0 L435.0,30.8 L434.0,31.6 L433.0,32.4 L432.0,33.2 L430.9,34.0 L429.6,35.0 L428.3,36.0 L427.0,36.8 L426.0,37.6 L425.0,38.4 L424.0,39.2 L422.9,40.0 L421.7,41.0 L420.7,42.0 L421.2,43.0 L422.6,44.0 L423.8,45.0 L425.0,45.8 L426.0,46.6 L427.0,47.4 L428.0,48.2 L429.1,49.0 L430.4,50.0 L431.7,51.0 L432.9,52.0 L434.0,52.8 L435.0,53.5 L436.0,54.3 L437.0,55.2 L438.0,56.0 L439.3,57.0 L440.5,58.0 L441.9,59.0 L443.0,59.7 L444.0,60.5 L445.0,61.3 L446.0,62.1 L447.2,63.0 L448.5,64.0 L449.7,65.0 L451.0,65.9 L452.0,66.6 L453.0,67.4 L454.0,68.3 L455.0,69.0 L456.4,70.0 L457.8,71.0 Z M574.0,71.0 L572.0,71.5 L570.0,71.6 L568.0,71.8 L566.0,71.8 L564.0,71.8 L562.0,71.8 L560.0,71.7 L558.0,71.7 L556.0,71.7 L554.0,71.7 L552.0,71.7 L550.0,71.7 L548.0,71.8 L546.0,71.8 L544.0,71.8 L542.0,71.8 L540.0,71.8 L538.0,71.8 L536.0,71.8 L534.0,71.8 L532.0,71.8 L530.0,71.8 L528.0,71.8 L526.0,71.6 L525.6,70.0 L525.5,68.0 L525.5,66.0 L525.5,64.0 L525.5,62.0 L525.5,60.0 L525.5,58.0 L525.5,56.0 L525.5,54.0 L525.5,52.0 L525.5,50.0 L525.6,48.0 L525.6,46.0 L525.6,44.0 L525.6,42.0 L525.6,40.0 L525.6,38.0 L525.5,36.0 L525.5,34.0 L525.5,32.0 L525.5,30.0 L525.5,28.0 L525.5,26.0 L525.6,24.0 L525.6,22.0 L525.6,20.0 L525.6,18.0 L525.6,16.0 L526.0,14.0 L527.0,13.7 L529.0,13.7 L531.0,13.7 L533.0,13.7 L535.0,13.7 L537.0,13.7 L539.0,13.7 L541.0,13.7 L543.0,13.7 L545.0,13.7 L547.0,13.7 L549.0,13.7 L551.0,13.7 L553.0,13.7 L555.0,13.7 L557.0,13.7 L559.0,13.7 L561.0,13.7 L563.0,13.7 L565.0,13.7 L567.0,13.7 L569.0,13.9 L570.0,14.0 L572.0,14.3 L574.0,14.6 L575.2,15.0 L577.0,15.4 L578.5,16.0 L580.0,16.5 L581.0,17.2 L582.6,18.0 L584.0,19.0 L585.0,19.7 L586.0,20.5 L587.0,21.4 L588.0,22.5 L589.0,23.8 L589.8,25.0 L590.6,26.0 L591.0,27.0 L592.0,29.0 L592.5,30.0 L593.0,32.0 L593.4,33.0 L593.6,35.0 L593.9,37.0 L594.1,38.0 L594.4,40.0 L594.5,42.0 L594.5,44.0 L594.4,46.0 L594.2,48.0 L594.0,49.0 L593.6,51.0 L593.3,53.0 L592.8,54.0 L592.4,56.0 L591.7,57.0 L591.0,58.7 L590.4,60.0 L589.6,61.0 L588.8,62.0 L588.0,63.2 L587.0,64.3 L586.0,65.3 L585.0,66.1 L583.6,67.0 L582.0,67.9 L581.0,68.5 L579.6,69.0 L578.0,69.7 L577.0,70.0 L575.0,70.6 L574.0,71.0 Z M629.0,71.1 L627.0,71.8 L625.0,71.8 L623.0,71.8 L621.0,71.7 L619.0,71.5 L618.6,70.0 L618.6,68.0 L618.6,66.0 L618.6,64.0 L618.6,62.0 L618.6,60.0 L618.6,58.0 L618.6,56.0 L618.6,54.0 L618.6,52.0 L618.6,50.0 L618.6,48.0 L618.6,46.0 L618.6,44.0 L618.6,42.0 L618.6,40.0 L618.6,38.0 L618.6,36.0 L618.6,34.0 L618.6,32.0 L618.6,30.0 L618.6,28.0 L618.6,26.0 L618.6,24.0 L618.6,22.0 L618.6,20.0 L618.6,18.0 L618.6,16.0 L619.0,14.0 L620.0,13.7 L622.0,13.7 L624.0,13.7 L626.0,13.7 L628.0,13.7 L629.0,14.9 L629.0,15.9 L629.0,16.5 L629.0,18.0 L629.0,20.0 L629.0,22.0 L629.0,24.0 L629.0,26.0 L629.1,28.0 L629.1,30.0 L629.1,32.0 L629.1,34.0 L629.1,36.0 L629.0,38.0 L629.0,40.0 L629.0,42.0 L629.0,44.0 L629.0,46.0 L629.1,48.0 L629.1,50.0 L629.1,52.0 L629.1,54.0 L629.1,56.0 L629.1,58.0 L629.1,60.0 L629.1,62.0 L629.1,64.0 L629.1,66.0 L629.1,68.0 L629.0,70.0 L629.0,71.1 Z M728.0,71.8 L726.0,71.8 L724.0,71.8 L722.0,71.8 L720.0,71.8 L718.0,71.7 L717.0,70.7 L716.1,69.0 L715.4,68.0 L714.9,67.0 L714.0,65.3 L713.3,64.0 L712.7,63.0 L712.0,61.5 L711.3,60.0 L710.6,59.0 L710.0,57.8 L709.0,56.0 L708.4,55.0 L707.9,54.0 L707.0,52.5 L706.2,51.0 L705.6,50.0 L705.0,48.8 L704.0,47.0 L703.4,46.0 L702.9,45.0 L702.0,43.3 L701.3,42.0 L700.6,41.0 L700.0,39.8 L699.0,38.1 L698.3,37.0 L697.8,36.0 L697.0,34.5 L696.2,33.0 L695.6,32.0 L695.0,30.7 L694.1,29.0 L693.4,28.0 L692.9,27.0 L691.3,27.0 L690.7,28.0 L690.0,29.0 L689.0,30.9 L688.4,32.0 L687.8,33.0 L687.0,34.5 L686.2,36.0 L685.5,37.0 L684.9,38.0 L684.0,39.5 L683.2,41.0 L682.6,42.0 L682.0,43.1 L681.0,45.0 L680.5,46.0 L679.5,48.0 L678.9,49.0 L678.0,50.7 L677.3,52.0 L676.6,53.0 L675.9,54.0 L675.0,55.7 L674.3,57.0 L673.7,58.0 L673.0,59.2 L672.0,61.0 L671.5,62.0 L670.9,63.0 L670.0,64.7 L669.3,66.0 L668.7,67.0 L668.0,68.2 L667.0,69.7 L666.2,71.0 L665.0,71.7 L663.0,71.7 L661.0,71.7 L659.0,71.7 L657.0,71.7 L655.0,71.5 L655.0,70.4 L655.8,69.0 L656.4,68.0 L657.0,66.9 L658.0,65.1 L658.7,64.0 L659.3,63.0 L660.0,61.8 L661.0,60.1 L661.7,59.0 L662.3,58.0 L663.0,56.8 L663.9,55.0 L664.5,54.0 L665.1,53.0 L666.0,51.5 L666.8,50.0 L667.4,49.0 L668.0,47.9 L669.0,46.1 L669.6,45.0 L670.3,44.0 L671.0,42.7 L671.9,41.0 L672.6,40.0 L673.1,39.0 L674.0,37.4 L674.8,36.0 L675.4,35.0 L676.0,34.0 L677.0,32.3 L677.7,31.0 L678.2,30.0 L679.0,28.6 L679.9,27.0 L680.5,26.0 L681.1,25.0 L682.0,23.3 L682.7,22.0 L683.3,21.0 L684.0,19.8 L685.0,18.0 L685.6,17.0 L686.2,16.0 L687.0,14.5 L688.0,13.8 L690.0,13.6 L692.0,13.6 L694.0,13.6 L696.0,13.7 L697.0,14.5 L697.8,16.0 L698.4,17.0 L699.0,18.0 L700.0,19.7 L700.7,21.0 L701.4,22.0 L702.0,23.2 L703.0,24.9 L703.5,26.0 L704.3,27.0 L705.0,28.5 L705.9,30.0 L706.5,31.0 L707.0,32.0 L708.0,33.8 L708.6,35.0 L709.3,36.0 L710.0,37.5 L710.8,39.0 L711.4,40.0 L712.0,41.0 L713.0,42.8 L713.6,44.0 L714.4,45.0 L715.0,46.3 L715.9,48.0 L716.5,49.0 L717.1,50.0 L718.0,51.6 L718.7,53.0 L719.4,54.0 L720.0,55.3 L721.0,57.0 L721.5,58.0 L722.3,59.0 L723.0,60.4 L723.9,62.0 L724.5,63.0 L725.2,64.0 L726.0,65.7 L726.7,67.0 L727.4,68.0 L728.0,69.5 L729.0,71.0 Z M830.0,71.7 L828.0,71.7 L826.0,71.7 L824.0,71.7 L822.2,71.0 L822.3,69.0 L822.3,67.0 L822.3,65.0 L822.4,63.0 L822.4,61.0 L822.4,59.0 L822.4,57.0 L822.4,55.0 L822.4,53.0 L822.4,51.0 L822.4,49.0 L822.4,47.0 L822.4,45.0 L822.4,43.0 L822.4,41.0 L822.4,39.0 L822.4,37.0 L822.4,35.0 L822.4,33.0 L822.4,31.0 L822.4,29.0 L822.5,27.0 L821.0,26.7 L820.0,27.9 L819.0,28.9 L818.1,30.0 L817.3,31.0 L816.5,32.0 L815.6,33.0 L814.7,34.0 L813.9,35.0 L813.0,36.1 L812.0,37.3 L811.0,38.5 L810.0,39.7 L809.0,40.9 L808.1,42.0 L807.4,43.0 L806.5,44.0 L805.6,45.0 L804.6,46.0 L803.8,47.0 L803.0,48.0 L802.0,49.2 L801.0,50.4 L800.0,51.5 L799.0,52.7 L798.0,53.8 L797.0,54.9 L796.2,56.0 L795.3,57.0 L794.0,58.0 L793.8,58.0 L792.0,58.0 L790.5,57.0 L789.6,56.0 L788.8,55.0 L788.0,54.0 L787.0,52.8 L786.0,51.6 L785.0,50.5 L784.0,49.4 L783.0,48.3 L782.0,47.2 L781.1,46.0 L780.2,45.0 L779.3,44.0 L778.4,43.0 L777.5,42.0 L776.7,41.0 L775.8,40.0 L775.0,38.9 L774.0,37.7 L773.0,36.6 L772.0,35.5 L771.0,34.4 L770.0,33.3 L769.0,32.1 L768.1,31.0 L767.3,30.0 L766.4,29.0 L765.5,28.0 L764.6,27.0 L763.2,27.0 L763.2,29.0 L763.2,31.0 L763.2,33.0 L763.1,35.0 L763.1,37.0 L763.0,39.0 L763.0,41.0 L763.0,43.0 L763.1,45.0 L763.1,47.0 L763.1,49.0 L763.1,51.0 L763.1,53.0 L763.1,55.0 L763.1,57.0 L763.0,59.0 L763.0,61.0 L763.0,63.0 L763.0,65.0 L763.0,67.0 L763.0,69.0 L763.0,70.3 L763.0,71.1 L761.0,71.7 L759.0,71.7 L757.0,71.7 L755.0,71.3 L754.8,70.0 L754.8,68.0 L754.8,66.0 L754.8,64.0 L754.8,62.0 L754.8,60.0 L754.9,58.0 L754.9,56.0 L755.0,54.0 L755.0,52.0 L755.0,50.0 L755.0,48.0 L755.0,46.0 L754.9,44.0 L754.9,42.0 L754.8,40.0 L754.8,38.0 L754.8,36.0 L754.8,34.0 L754.8,32.0 L754.9,30.0 L754.9,28.0 L754.9,26.0 L754.9,24.0 L754.9,22.0 L754.9,20.0 L754.8,18.0 L754.9,16.0 L755.0,14.4 L756.0,13.7 L758.0,13.7 L760.0,13.7 L762.0,13.6 L763.7,14.0 L764.7,15.0 L765.6,16.0 L766.5,17.0 L767.3,18.0 L768.0,19.0 L769.0,20.2 L770.0,21.3 L771.0,22.4 L772.0,23.6 L773.0,24.7 L774.0,25.9 L774.9,27.0 L775.7,28.0 L776.6,29.0 L777.6,30.0 L778.4,31.0 L779.3,32.0 L780.0,33.0 L781.0,34.2 L782.0,35.3 L783.0,36.4 L784.0,37.4 L785.0,38.6 L786.0,39.7 L787.0,41.0 L787.8,42.0 L788.7,43.0 L789.6,44.0 L790.6,45.0 L791.6,46.0 L792.5,47.0 L793.4,47.0 L794.4,46.0 L795.3,45.0 L796.2,44.0 L797.0,43.0 L798.0,41.8 L799.0,40.6 L800.0,39.4 L801.0,38.2 L802.0,37.0 L802.8,36.0 L803.7,35.0 L804.6,34.0 L805.5,33.0 L806.4,32.0 L807.2,31.0 L808.0,29.9 L809.0,28.6 L810.0,27.5 L811.0,26.4 L812.0,25.2 L813.0,24.1 L813.8,23.0 L814.7,22.0 L815.6,21.0 L816.5,20.0 L817.4,19.0 L818.3,18.0 L819.1,17.0 L820.0,15.8 L821.0,14.6 L822.0,13.7 L824.0,13.7 L826.0,13.7 L828.0,13.7 L830.0,13.8 L830.7,15.0 L830.6,17.0 L830.6,19.0 L830.6,21.0 L830.5,23.0 L830.5,25.0 L830.5,27.0 L830.6,29.0 L830.6,31.0 L830.6,33.0 L830.6,35.0 L830.6,37.0 L830.6,39.0 L830.5,41.0 L830.5,43.0 L830.6,45.0 L830.6,47.0 L830.6,49.0 L830.6,51.0 L830.6,53.0 L830.6,55.0 L830.6,57.0 L830.5,59.0 L830.5,61.0 L830.5,63.0 L830.6,65.0 L830.6,67.0 L830.6,69.0 L830.6,71.0 Z M909.0,72.2 L907.0,72.5 L905.0,72.6 L903.0,72.6 L901.0,72.6 L899.0,72.6 L897.0,72.5 L895.0,72.5 L893.0,72.5 L891.0,72.5 L889.0,72.5 L887.0,72.6 L885.0,72.6 L883.0,72.5 L881.0,72.3 L879.6,72.0 L878.0,71.6 L876.0,71.4 L875.0,71.0 L873.0,70.4 L872.0,69.9 L870.0,69.1 L869.0,68.6 L868.0,67.9 L866.6,67.0 L865.4,66.0 L864.3,65.0 L863.3,64.0 L862.4,63.0 L861.6,62.0 L860.9,61.0 L860.0,59.5 L859.2,58.0 L858.7,57.0 L858.2,55.0 L857.8,54.0 L857.4,52.0 L857.0,50.0 L856.9,49.0 L856.7,47.0 L856.6,45.0 L856.6,43.0 L856.8,41.0 L856.9,39.0 L857.0,38.0 L857.2,36.0 L857.5,34.0 L857.8,32.0 L858.2,31.0 L858.9,29.0 L859.4,28.0 L860.0,26.8 L861.0,25.2 L861.8,24.0 L862.6,23.0 L863.5,22.0 L864.5,21.0 L865.6,20.0 L866.9,19.0 L868.0,18.3 L869.0,17.6 L870.2,17.0 L872.0,16.2 L873.0,15.7 L875.0,15.2 L876.0,14.7 L878.0,14.3 L880.0,14.1 L881.0,13.9 L883.0,13.6 L885.0,13.4 L887.0,13.5 L889.0,13.5 L891.0,13.5 L893.0,13.5 L895.0,13.5 L897.0,13.4 L899.0,13.4 L901.0,13.4 L903.0,13.4 L905.0,13.5 L907.0,13.7 L908.9,14.0 L910.0,14.2 L912.0,14.5 L913.7,15.0 L915.0,15.4 L916.4,16.0 L918.0,16.6 L919.0,17.3 L920.2,18.0 L921.6,19.0 L922.9,20.0 L924.0,20.9 L925.0,21.9 L926.0,23.0 L926.7,24.0 L927.5,25.0 L928.3,26.0 L929.0,27.6 L929.6,29.0 L930.0,30.0 L930.5,32.0 L931.0,33.7 L931.3,35.0 L931.5,37.0 L931.7,39.0 L931.9,41.0 L932.0,42.0 L932.0,44.0 L932.0,46.0 L931.8,48.0 L931.4,50.0 L931.2,52.0 L930.8,53.0 L930.3,55.0 L930.0,56.0 L929.2,58.0 L928.6,59.0 L928.0,60.2 L927.0,61.6 L926.0,62.9 L925.1,64.0 L924.1,65.0 L923.0,65.9 L922.0,66.7 L921.0,67.4 L920.0,68.1 L918.3,69.0 L917.0,69.6 L916.0,70.0 L914.0,70.7 L913.0,71.2 L911.0,71.6 L909.5,72.0 Z M1020.0,71.6 L1018.0,71.8 L1016.0,71.8 L1014.0,71.7 L1012.0,71.4 L1011.0,70.4 L1010.0,69.5 L1009.0,68.5 L1008.0,67.5 L1007.0,66.5 L1006.0,65.5 L1005.0,64.5 L1004.0,63.5 L1003.0,62.5 L1002.0,61.4 L1001.0,60.4 L1000.0,59.4 L999.0,58.4 L998.0,57.4 L997.0,56.4 L996.0,55.5 L995.0,54.5 L994.0,53.5 L993.0,52.5 L992.0,51.4 L991.0,50.4 L990.0,49.4 L989.0,48.4 L988.0,47.4 L987.0,46.4 L986.0,45.4 L985.0,44.4 L984.0,43.4 L983.0,42.4 L982.0,41.5 L981.0,40.5 L980.0,39.5 L979.0,38.5 L978.0,37.5 L977.0,36.5 L976.0,35.4 L975.0,34.5 L974.0,33.5 L973.0,32.6 L972.0,31.6 L971.0,30.6 L970.0,29.6 L969.0,28.6 L968.0,27.6 L967.0,26.6 L966.0,25.7 L965.4,27.0 L965.4,29.0 L965.5,31.0 L965.5,33.0 L965.5,35.0 L965.5,37.0 L965.5,39.0 L965.5,41.0 L965.5,43.0 L965.5,45.0 L965.5,47.0 L965.5,49.0 L965.5,51.0 L965.5,53.0 L965.5,55.0 L965.5,57.0 L965.5,59.0 L965.5,61.0 L965.5,63.0 L965.5,65.0 L965.5,67.0 L965.5,69.0 L965.5,71.0 L964.0,71.7 L962.0,71.7 L960.0,71.7 L958.0,71.7 L957.3,70.0 L957.3,68.0 L957.4,66.0 L957.4,64.0 L957.4,62.0 L957.4,60.0 L957.4,58.0 L957.4,56.0 L957.4,54.0 L957.4,52.0 L957.4,50.0 L957.4,48.0 L957.4,46.0 L957.4,44.0 L957.3,42.0 L957.3,40.0 L957.3,38.0 L957.3,36.0 L957.3,34.0 L957.3,32.0 L957.3,30.0 L957.4,28.0 L957.3,26.0 L957.3,24.0 L957.3,22.0 L957.3,20.0 L957.3,18.0 L957.3,16.0 L957.6,14.0 L959.0,13.8 L961.0,13.7 L963.0,13.7 L965.0,13.8 L966.0,14.2 L967.0,15.2 L968.0,16.3 L969.0,17.3 L970.0,18.4 L971.0,19.4 L972.0,20.4 L973.0,21.3 L974.0,22.3 L975.0,23.3 L976.0,24.3 L977.0,25.3 L978.0,26.3 L979.0,27.3 L980.0,28.2 L981.0,29.2 L982.0,30.2 L983.0,31.2 L984.0,32.2 L985.0,33.2 L986.0,34.2 L987.0,35.2 L988.0,36.2 L989.0,37.2 L990.0,38.2 L991.0,39.2 L992.0,40.3 L993.0,41.3 L994.0,42.3 L995.0,43.2 L996.0,44.2 L997.0,45.1 L998.0,46.1 L999.0,47.1 L1000.0,48.1 L1001.0,49.2 L1002.0,50.2 L1003.0,51.2 L1004.0,52.2 L1005.0,53.3 L1006.0,54.2 L1007.0,55.2 L1008.0,56.2 L1009.0,57.2 L1010.0,58.2 L1011.0,59.1 L1012.0,60.3 L1012.6,59.0 L1012.6,57.0 L1012.6,55.0 L1012.6,53.0 L1012.6,51.0 L1012.6,49.0 L1012.6,47.0 L1012.6,45.0 L1012.6,43.0 L1012.6,41.0 L1012.6,39.0 L1012.6,37.0 L1012.6,35.0 L1012.6,33.0 L1012.6,31.0 L1012.6,29.0 L1012.6,27.0 L1012.6,25.0 L1012.6,23.0 L1012.6,21.0 L1012.6,19.0 L1012.6,17.0 L1012.5,15.0 L1013.1,14.0 L1015.0,13.9 L1017.0,13.9 L1019.0,13.9 L1020.0,14.1 L1020.4,16.0 L1020.4,18.0 L1020.5,20.0 L1020.5,22.0 L1020.5,24.0 L1020.5,26.0 L1020.4,28.0 L1020.4,30.0 L1020.4,32.0 L1020.3,34.0 L1020.3,36.0 L1020.3,38.0 L1020.4,40.0 L1020.4,42.0 L1020.4,44.0 L1020.4,46.0 L1020.5,48.0 L1020.5,50.0 L1020.5,52.0 L1020.5,54.0 L1020.5,56.0 L1020.5,58.0 L1020.4,60.0 L1020.4,62.0 L1020.4,64.0 L1020.4,66.0 L1020.4,68.0 L1020.4,70.0 L1020.0,71.6 Z M1095.0,71.2 L1093.0,71.4 L1091.0,71.6 L1089.0,71.7 L1087.0,71.7 L1085.0,71.7 L1083.0,71.7 L1081.0,71.7 L1079.0,71.7 L1077.0,71.7 L1075.0,71.7 L1073.0,71.7 L1071.0,71.7 L1069.0,71.7 L1067.0,71.7 L1065.0,71.7 L1063.0,71.7 L1061.0,71.7 L1059.0,71.7 L1057.0,71.7 L1055.0,71.7 L1053.0,71.7 L1051.0,71.7 L1049.0,71.7 L1047.9,71.0 L1048.0,69.0 L1047.9,67.0 L1048.0,65.0 L1047.9,63.0 L1047.9,61.0 L1047.9,59.0 L1047.9,57.0 L1048.0,55.0 L1048.0,53.7 L1048.0,52.0 L1048.1,50.0 L1048.1,48.0 L1048.1,46.0 L1048.1,44.0 L1048.1,42.0 L1048.1,40.0 L1048.0,38.0 L1048.0,36.0 L1048.0,34.0 L1048.1,32.0 L1048.1,30.0 L1048.1,28.0 L1048.0,26.5 L1048.0,25.0 L1047.9,23.0 L1047.9,21.0 L1048.0,19.0 L1048.0,17.0 L1048.1,16.0 L1047.9,15.0 L1048.8,14.0 L1050.0,13.9 L1052.0,13.8 L1054.0,13.8 L1056.0,13.8 L1058.0,13.8 L1060.0,13.8 L1062.0,13.8 L1064.0,13.8 L1066.0,13.9 L1068.0,13.9 L1070.0,13.9 L1072.0,13.9 L1074.0,13.9 L1076.0,13.9 L1078.0,13.8 L1080.0,13.8 L1082.0,13.8 L1084.0,13.8 L1086.0,13.8 L1088.0,13.8 L1089.6,14.0 L1091.0,14.2 L1093.0,14.4 L1095.0,14.5 L1096.8,15.0 L1098.0,15.3 L1100.0,15.9 L1101.0,16.3 L1102.4,17.0 L1104.0,17.8 L1105.0,18.4 L1106.0,19.2 L1107.0,20.0 L1108.2,21.0 L1109.3,22.0 L1110.2,23.0 L1111.0,24.0 L1112.0,25.5 L1113.0,27.0 L1113.4,28.0 L1114.0,29.1 L1114.7,31.0 L1115.0,32.3 L1115.4,34.0 L1115.7,36.0 L1115.9,38.0 L1116.0,39.1 L1116.2,41.0 L1116.3,43.0 L1116.2,45.0 L1116.1,47.0 L1115.9,48.0 L1115.6,50.0 L1115.3,52.0 L1115.0,53.1 L1114.4,55.0 L1114.0,56.3 L1113.3,58.0 L1112.7,59.0 L1112.0,60.3 L1111.0,61.6 L1110.0,62.9 L1109.1,64.0 L1108.1,65.0 L1107.0,66.0 L1106.0,66.7 L1105.0,67.5 L1104.0,68.1 L1102.0,69.0 L1100.0,69.7 L1099.0,70.2 L1097.0,70.6 L1095.9,71.0 Z M908.3,64.0 L910.0,63.5 L912.0,63.0 L913.0,62.5 L914.2,62.0 L915.8,61.0 L917.0,60.3 L918.0,59.3 L919.0,58.3 L920.0,57.0 L920.5,56.0 L921.2,55.0 L922.0,53.1 L922.3,52.0 L922.9,50.0 L923.2,49.0 L923.4,47.0 L923.6,45.0 L923.8,43.0 L923.7,41.0 L923.4,39.0 L923.3,37.0 L923.0,35.8 L922.4,34.0 L922.0,32.7 L921.3,31.0 L920.7,30.0 L920.0,28.7 L919.0,27.5 L918.0,26.5 L917.0,25.6 L916.0,24.9 L914.4,24.0 L913.0,23.4 L912.0,23.0 L910.0,22.4 L908.0,22.1 L907.0,21.9 L905.0,21.7 L903.0,21.7 L901.0,21.7 L899.0,21.6 L897.0,21.6 L895.0,21.5 L893.0,21.5 L891.0,21.5 L889.0,21.6 L887.0,21.6 L885.0,21.6 L883.0,21.7 L881.0,22.0 L880.0,22.3 L878.0,22.6 L877.0,23.0 L875.0,23.7 L874.0,24.4 L872.9,25.0 L871.6,26.0 L870.6,27.0 L869.6,28.0 L868.7,29.0 L868.0,30.0 L867.0,32.0 L866.7,33.0 L866.0,34.8 L865.8,36.0 L865.4,38.0 L865.3,40.0 L865.0,41.9 L865.0,43.0 L865.0,44.2 L865.1,46.0 L865.4,48.0 L865.7,50.0 L866.0,51.9 L866.4,53.0 L867.0,54.6 L867.7,56.0 L868.4,57.0 L869.1,58.0 L870.1,59.0 L871.2,60.0 L872.6,61.0 L874.0,61.6 L875.0,62.3 L876.9,63.0 L878.0,63.4 L880.0,63.7 L881.0,64.1 L883.0,64.4 L885.0,64.5 L887.0,64.5 L889.0,64.5 L891.0,64.5 L893.0,64.5 L895.0,64.5 L897.0,64.5 L899.0,64.5 L901.0,64.5 L903.0,64.5 L905.0,64.5 L907.0,64.3 L908.3,64.0 Z M1089.8,64.0 L1091.0,63.8 L1093.0,63.6 L1095.0,63.3 L1096.0,62.8 L1098.0,62.3 L1099.0,61.6 L1100.4,61.0 L1101.9,60.0 L1103.0,59.1 L1104.0,58.2 L1104.9,57.0 L1105.5,56.0 L1106.0,55.0 L1106.7,53.0 L1107.3,51.0 L1107.6,49.0 L1108.0,47.2 L1108.2,46.0 L1108.3,44.0 L1108.3,42.0 L1108.2,40.0 L1108.0,38.6 L1107.7,37.0 L1107.3,35.0 L1106.7,33.0 L1106.0,31.2 L1105.4,30.0 L1104.8,29.0 L1104.0,28.0 L1103.0,26.9 L1101.9,26.0 L1100.4,25.0 L1099.0,24.3 L1098.0,23.8 L1096.0,23.2 L1095.0,22.9 L1093.0,22.5 L1091.0,22.2 L1089.0,22.0 L1088.0,22.0 L1086.0,21.9 L1084.0,21.9 L1082.0,21.9 L1080.6,22.0 L1079.0,22.0 L1077.0,22.1 L1075.0,22.1 L1073.0,22.1 L1071.0,22.0 L1069.0,22.0 L1067.0,22.0 L1065.0,22.0 L1063.0,22.0 L1061.0,22.0 L1060.0,22.0 L1058.0,22.0 L1057.0,22.0 L1056.1,23.0 L1056.1,25.0 L1056.1,27.0 L1056.1,29.0 L1056.1,31.0 L1056.1,33.0 L1056.0,35.0 L1056.0,37.0 L1056.1,39.0 L1056.1,41.0 L1056.1,43.0 L1056.2,45.0 L1056.2,47.0 L1056.1,49.0 L1056.0,51.0 L1056.0,52.0 L1056.0,54.0 L1056.0,56.0 L1056.0,58.0 L1056.0,59.0 L1056.0,61.0 L1056.0,63.0 L1057.0,64.3 L1059.0,64.2 L1061.0,64.2 L1063.0,64.2 L1065.0,64.2 L1067.0,64.2 L1069.0,64.2 L1071.0,64.2 L1073.0,64.2 L1075.0,64.2 L1077.0,64.3 L1079.0,64.3 L1081.0,64.3 L1083.0,64.3 L1085.0,64.3 L1087.0,64.3 L1089.0,64.2 Z M71.4,37.0 L73.0,36.4 L74.0,35.6 L75.0,34.6 L75.8,33.0 L76.1,32.0 L76.2,30.0 L76.0,28.2 L75.4,27.0 L74.8,26.0 L73.7,25.0 L72.0,24.3 L70.0,24.1 L68.0,24.0 L66.0,24.0 L64.0,24.0 L62.0,23.9 L60.0,24.0 L58.0,24.0 L56.0,24.0 L54.0,24.0 L52.0,24.0 L50.0,24.0 L48.0,24.0 L46.0,23.9 L44.0,23.9 L42.0,23.9 L40.0,23.9 L38.0,23.9 L36.0,24.0 L34.7,24.0 L33.0,24.1 L31.0,24.0 L30.2,26.0 L30.2,28.0 L30.2,30.0 L30.2,32.0 L30.2,34.0 L30.1,36.0 L31.0,37.5 L33.0,37.4 L35.0,37.5 L37.0,37.4 L39.0,37.4 L41.0,37.4 L43.0,37.4 L45.0,37.4 L47.0,37.4 L49.0,37.4 L51.0,37.4 L53.0,37.4 L55.0,37.5 L57.0,37.4 L59.0,37.4 L61.0,37.4 L63.0,37.4 L65.0,37.4 L67.0,37.4 L69.0,37.4 L71.0,37.2 Z M572.8,61.0 L574.0,60.5 L575.3,60.0 L577.0,59.2 L578.0,58.4 L579.0,57.6 L580.0,56.6 L581.0,55.4 L581.7,54.0 L582.3,53.0 L583.0,51.1 L583.3,50.0 L583.6,48.0 L583.8,46.0 L583.9,44.0 L583.8,42.0 L583.7,40.0 L583.5,38.0 L583.3,36.0 L583.0,34.9 L582.4,33.0 L582.0,32.0 L581.0,30.2 L580.1,29.0 L579.0,28.0 L578.0,27.3 L577.0,26.5 L576.0,25.9 L574.0,25.2 L573.0,24.7 L571.0,24.4 L569.0,24.1 L567.0,24.0 L565.0,24.0 L563.0,24.0 L561.0,24.1 L559.0,24.1 L557.0,24.1 L555.0,24.1 L553.0,24.1 L551.0,24.1 L549.0,24.1 L547.0,24.2 L545.0,24.2 L543.0,24.2 L541.0,24.1 L539.0,24.1 L537.0,24.1 L536.2,26.0 L536.2,28.0 L536.2,30.0 L536.2,32.0 L536.1,34.0 L536.2,36.0 L536.1,38.0 L536.1,40.0 L536.1,42.0 L536.2,44.0 L536.2,46.0 L536.1,48.0 L536.1,50.0 L536.2,52.0 L536.2,54.0 L536.2,56.0 L536.2,58.0 L536.2,60.0 L537.0,61.7 L539.0,61.7 L541.0,61.7 L543.0,61.7 L545.0,61.7 L547.0,61.7 L549.0,61.7 L551.0,61.7 L553.0,61.7 L555.0,61.7 L557.0,61.7 L559.0,61.7 L561.0,61.7 L563.0,61.7 L565.0,61.7 L567.0,61.7 L569.0,61.6 L571.0,61.4 L572.8,61.0 Z M75.1,61.0 L76.6,60.0 L77.4,59.0 L78.1,58.0 L78.4,56.0 L78.4,54.0 L78.2,52.0 L77.6,51.0 L76.9,50.0 L75.7,49.0 L74.0,48.3 L73.0,47.9 L71.0,47.5 L69.0,47.5 L67.0,47.4 L65.0,47.4 L63.0,47.4 L61.0,47.4 L59.0,47.3 L57.0,47.3 L55.0,47.4 L53.0,47.4 L51.0,47.4 L49.0,47.4 L47.0,47.4 L45.0,47.4 L43.0,47.4 L41.0,47.4 L39.0,47.4 L37.0,47.4 L35.0,47.4 L33.0,47.4 L31.0,47.4 L30.2,49.0 L30.2,51.0 L30.2,53.0 L30.2,55.0 L30.2,57.0 L30.2,59.0 L30.2,61.0 L32.0,61.7 L34.0,61.7 L36.0,61.7 L38.0,61.8 L40.0,61.8 L42.0,61.8 L44.0,61.8 L46.0,61.8 L48.0,61.8 L50.0,61.8 L52.0,61.8 L54.0,61.8 L56.0,61.7 L58.0,61.7 L60.0,61.7 L62.0,61.7 L64.0,61.8 L66.0,61.7 L68.0,61.7 L70.0,61.8 L72.0,61.7 L74.0,61.4 L75.1,61.0 Z M414.0,154.3 L412.0,154.2 L410.0,154.2 L408.0,154.2 L406.0,154.2 L404.0,154.2 L402.0,154.2 L400.0,154.2 L398.0,154.2 L396.0,154.2 L394.0,154.2 L392.0,154.2 L390.0,154.3 L388.0,154.3 L386.0,154.3 L384.0,154.3 L382.0,154.2 L380.0,154.2 L378.0,154.2 L376.0,154.2 L374.0,154.3 L373.0,153.6 L372.9,152.0 L372.9,150.0 L372.9,148.0 L373.0,146.0 L373.0,144.0 L373.0,142.0 L373.0,140.0 L373.0,138.0 L373.0,137.0 L372.9,135.0 L372.9,133.0 L372.9,131.0 L372.9,129.0 L372.9,127.0 L372.9,125.0 L372.9,123.0 L372.9,121.0 L373.0,119.2 L373.0,118.0 L373.1,116.0 L373.5,114.0 L375.0,113.8 L377.0,113.8 L379.0,113.7 L380.0,114.6 L380.0,116.0 L380.1,118.0 L380.1,120.0 L380.1,122.0 L380.1,124.0 L380.1,126.0 L380.1,128.0 L380.1,130.0 L380.0,132.0 L380.0,134.0 L380.0,136.0 L380.0,138.0 L380.1,140.0 L380.2,142.0 L380.2,144.0 L380.2,146.0 L381.0,147.6 L383.0,147.6 L385.0,147.7 L387.0,147.7 L389.0,147.7 L391.0,147.6 L393.0,147.6 L395.0,147.6 L397.0,147.6 L399.0,147.6 L401.0,147.7 L403.0,147.7 L405.0,147.7 L407.0,147.7 L409.0,147.7 L411.0,147.6 L413.0,147.6 L414.9,148.0 L415.1,149.0 L414.9,150.0 L414.9,152.0 L414.5,154.0 Z M535.0,154.3 L533.0,154.3 L531.0,154.3 L529.0,154.3 L527.3,154.0 L526.4,153.0 L526.0,152.0 L525.0,150.3 L524.3,149.0 L523.7,148.0 L523.0,146.7 L522.0,145.0 L521.4,144.0 L520.8,143.0 L520.0,141.4 L519.2,140.0 L518.6,139.0 L518.0,137.8 L517.0,136.0 L516.4,135.0 L515.8,134.0 L515.0,132.6 L514.1,131.0 L513.4,130.0 L512.8,129.0 L512.0,127.4 L511.2,126.0 L510.6,125.0 L510.0,123.9 L509.0,122.6 L508.0,123.8 L507.4,125.0 L506.7,126.0 L506.0,127.4 L505.2,129.0 L504.5,130.0 L504.0,131.0 L503.0,132.7 L502.3,134.0 L501.7,135.0 L501.0,136.3 L500.1,138.0 L499.4,139.0 L498.8,140.0 L498.0,141.4 L497.2,143.0 L496.5,144.0 L495.9,145.0 L495.0,146.5 L494.2,148.0 L493.6,149.0 L493.0,150.1 L492.0,151.8 L491.3,153.0 L490.4,154.0 L489.0,154.4 L487.0,154.3 L485.0,154.3 L483.0,154.3 L482.8,153.0 L483.6,152.0 L484.2,151.0 L485.0,149.6 L485.9,148.0 L486.5,147.0 L487.1,146.0 L488.0,144.4 L488.7,143.0 L489.3,142.0 L490.0,140.9 L491.0,139.4 L491.7,138.0 L492.4,137.0 L493.0,136.0 L494.0,134.2 L494.6,133.0 L495.2,132.0 L496.0,130.5 L496.8,129.0 L497.4,128.0 L498.0,127.0 L499.0,125.4 L499.7,124.0 L500.4,123.0 L501.0,122.0 L502.0,120.1 L502.5,119.0 L503.2,118.0 L504.0,116.4 L504.7,115.0 L505.4,114.0 L507.0,113.5 L509.0,113.6 L511.0,113.6 L512.3,114.0 L513.0,115.0 L514.0,116.8 L514.6,118.0 L515.3,119.0 L516.0,120.4 L517.0,122.0 L517.5,123.0 L518.2,124.0 L519.0,125.5 L519.8,127.0 L520.4,128.0 L521.5,130.0 L522.1,131.0 L523.0,132.5 L523.9,134.0 L524.5,135.0 L525.2,136.0 L526.0,137.5 L526.8,139.0 L527.4,140.0 L528.0,141.0 L529.0,142.7 L529.7,144.0 L530.4,145.0 L531.0,146.2 L532.0,147.8 L532.7,149.0 L533.4,150.0 L534.0,151.3 L535.0,152.9 L535.2,154.0 Z M643.0,154.0 L641.0,154.3 L639.0,154.2 L637.0,154.2 L635.0,154.2 L633.0,154.2 L631.0,154.2 L629.0,154.2 L627.0,154.2 L625.0,154.2 L623.0,154.3 L621.0,154.3 L619.0,154.4 L617.0,154.4 L615.0,154.4 L613.0,154.4 L611.0,154.3 L609.0,154.3 L607.0,154.3 L605.0,154.2 L604.4,153.0 L604.5,151.0 L604.4,149.0 L604.4,147.0 L604.4,145.0 L604.4,143.0 L604.4,141.0 L604.4,139.0 L604.5,137.0 L604.5,135.0 L604.5,133.0 L604.5,131.0 L604.4,129.0 L604.4,127.0 L604.4,125.0 L604.5,123.0 L604.5,121.0 L604.5,119.0 L604.5,117.0 L604.4,115.0 L605.0,113.6 L607.0,113.6 L609.0,113.6 L611.0,113.6 L613.0,113.6 L615.0,113.6 L617.0,113.6 L619.0,113.6 L621.0,113.6 L623.0,113.7 L625.0,113.7 L627.0,113.7 L629.0,113.7 L631.0,113.7 L633.0,113.7 L635.0,113.7 L637.0,113.8 L639.0,113.8 L641.0,113.8 L642.7,114.0 L644.0,114.3 L646.0,114.8 L647.0,115.3 L648.1,116.0 L649.2,117.0 L650.6,119.0 L651.3,121.0 L651.5,123.0 L651.6,125.0 L651.5,127.0 L651.0,128.5 L650.3,130.0 L649.6,131.0 L648.6,132.0 L647.6,133.0 L648.6,134.0 L650.0,134.8 L651.0,135.7 L652.0,137.0 L652.6,138.0 L653.0,139.0 L653.5,141.0 L653.6,143.0 L653.5,145.0 L653.0,146.7 L652.6,148.0 L652.0,149.1 L651.0,150.4 L650.0,151.4 L649.0,152.1 L647.2,153.0 L646.0,153.5 L644.0,153.8 L643.0,154.0 Z M754.0,154.1 L752.0,154.2 L750.0,154.2 L748.0,154.2 L746.0,154.2 L744.0,154.2 L742.0,154.1 L740.0,154.1 L738.0,154.1 L736.0,154.2 L734.0,154.1 L732.0,154.1 L731.0,153.9 L729.0,153.6 L727.0,153.3 L726.0,152.9 L724.0,152.5 L722.5,152.0 L721.0,151.6 L720.6,150.0 L721.1,149.0 L721.9,147.0 L722.5,146.0 L724.0,145.3 L725.7,146.0 L727.0,146.5 L729.0,146.9 L730.0,147.3 L732.0,147.6 L734.0,147.7 L736.0,147.7 L738.0,147.8 L740.0,147.8 L742.0,147.9 L744.0,147.9 L746.0,147.9 L748.0,147.8 L750.0,147.7 L752.0,147.7 L754.0,147.7 L756.0,147.4 L757.0,146.8 L758.0,145.9 L758.9,144.0 L759.0,143.0 L759.0,141.8 L758.6,140.0 L757.7,139.0 L756.1,138.0 L755.0,137.5 L753.0,137.3 L751.0,137.1 L750.0,136.9 L748.0,136.8 L746.0,136.9 L744.0,136.9 L742.0,136.9 L740.0,136.9 L738.0,136.8 L736.0,136.8 L734.0,136.7 L732.0,136.5 L730.0,136.3 L728.9,136.0 L727.0,135.5 L725.9,135.0 L724.1,134.0 L723.0,133.2 L722.0,132.0 L721.1,130.0 L720.7,129.0 L720.5,127.0 L720.5,125.0 L720.5,123.0 L720.8,121.0 L721.2,120.0 L722.0,118.3 L723.0,117.2 L724.0,116.4 L725.0,115.7 L726.5,115.0 L728.0,114.6 L730.0,114.2 L731.0,114.0 L733.0,113.8 L735.0,113.7 L737.0,113.7 L739.0,113.7 L741.0,113.7 L743.0,113.7 L745.0,113.7 L747.0,113.7 L749.0,113.8 L751.0,113.7 L753.0,113.9 L754.1,114.0 L756.0,114.4 L758.0,114.8 L759.2,115.0 L761.0,115.6 L762.4,116.0 L764.0,116.7 L764.3,118.0 L763.7,119.0 L763.0,120.8 L762.3,122.0 L761.0,122.0 L760.0,121.5 L758.0,121.1 L757.0,120.8 L755.0,120.5 L753.0,120.3 L751.0,120.1 L749.0,120.0 L747.0,120.0 L745.0,120.0 L743.0,120.0 L741.0,120.0 L739.0,120.0 L737.0,120.0 L735.0,120.0 L733.0,120.1 L731.0,120.4 L729.5,121.0 L728.3,122.0 L727.5,123.0 L727.2,125.0 L727.3,127.0 L728.0,128.1 L729.2,129.0 L731.0,129.8 L732.0,130.1 L734.0,130.4 L736.0,130.4 L738.0,130.4 L740.0,130.4 L742.0,130.4 L744.0,130.4 L746.0,130.4 L748.0,130.3 L750.0,130.4 L752.0,130.6 L754.0,130.9 L755.0,131.1 L757.0,131.6 L758.4,132.0 L760.0,132.7 L761.0,133.2 L762.3,134.0 L763.3,135.0 L764.2,136.0 L765.0,137.3 L765.6,139.0 L766.0,140.1 L766.2,142.0 L766.1,144.0 L766.0,145.1 L765.4,147.0 L764.9,148.0 L764.0,149.4 L763.0,150.5 L762.0,151.3 L760.9,152.0 L759.0,152.8 L758.0,153.2 L756.0,153.7 L754.7,154.0 Z M640.3,130.0 L642.0,129.6 L643.0,128.8 L644.0,127.8 L644.7,126.0 L644.7,124.0 L644.0,122.3 L643.0,121.2 L642.0,120.6 L640.0,120.3 L638.0,120.3 L636.0,120.3 L634.0,120.3 L632.0,120.3 L630.0,120.4 L628.0,120.4 L626.0,120.4 L624.0,120.4 L622.0,120.4 L620.0,120.4 L618.0,120.4 L616.0,120.4 L614.0,120.4 L612.0,120.7 L611.7,122.0 L611.7,124.0 L611.7,126.0 L611.8,128.0 L612.0,129.7 L613.0,130.1 L615.0,130.1 L617.0,130.1 L619.0,130.1 L621.0,130.2 L623.0,130.2 L625.0,130.2 L627.0,130.3 L629.0,130.2 L631.0,130.2 L633.0,130.2 L635.0,130.2 L637.0,130.1 L639.0,130.1 L640.3,130.0 Z M318.0,135.1 L316.0,135.5 L314.0,135.5 L312.0,135.5 L310.0,135.5 L308.0,135.5 L306.0,135.5 L304.0,135.6 L302.0,135.6 L300.0,135.6 L298.0,135.6 L296.0,135.6 L294.0,135.6 L292.0,135.6 L290.0,135.6 L288.0,135.6 L286.0,135.6 L284.0,135.6 L282.0,135.6 L280.0,135.6 L278.0,135.6 L276.0,135.6 L274.0,135.6 L272.0,135.6 L270.0,135.6 L268.0,135.6 L266.0,135.6 L264.0,135.6 L262.0,135.6 L260.0,135.6 L258.0,135.6 L256.0,135.6 L254.0,135.6 L252.0,135.6 L250.0,135.6 L248.0,135.6 L246.0,135.6 L244.0,135.6 L242.0,135.6 L240.0,135.6 L238.0,135.6 L236.0,135.6 L234.0,135.6 L232.0,135.6 L230.0,135.6 L228.0,135.6 L226.0,135.5 L224.0,135.5 L222.0,135.5 L220.0,135.5 L218.0,135.5 L216.0,135.5 L214.0,135.5 L212.0,135.5 L210.0,135.5 L208.0,135.5 L206.0,135.5 L204.0,135.4 L202.0,135.4 L200.0,135.4 L198.0,135.4 L196.0,135.4 L194.0,135.3 L192.0,135.3 L190.0,135.3 L188.0,135.2 L186.0,135.2 L184.0,135.2 L182.0,135.2 L180.0,135.2 L178.0,135.2 L176.0,135.2 L174.0,135.1 L172.0,135.1 L170.0,135.1 L168.0,135.1 L166.0,135.1 L164.0,135.0 L162.0,135.0 L160.0,135.0 L158.0,135.0 L156.0,135.0 L154.0,135.0 L152.0,135.0 L150.0,134.9 L148.0,134.9 L146.0,134.9 L144.0,134.9 L142.0,134.9 L140.0,134.9 L138.0,134.9 L136.0,134.8 L134.0,134.8 L132.0,134.8 L130.0,134.8 L128.0,134.8 L126.0,134.8 L124.0,134.7 L122.0,134.7 L120.0,134.7 L118.0,134.7 L116.0,134.7 L114.0,134.6 L112.0,134.6 L110.0,134.6 L108.0,134.6 L106.0,134.6 L104.0,134.6 L102.0,134.6 L100.0,134.6 L98.0,134.6 L96.0,134.6 L94.0,134.5 L92.0,134.5 L90.0,134.5 L88.0,134.5 L86.0,134.5 L84.0,134.5 L82.0,134.4 L80.0,134.4 L78.0,134.4 L76.0,134.3 L74.0,134.3 L72.0,134.2 L70.0,134.2 L68.0,134.1 L66.0,134.1 L64.0,134.0 L66.0,133.9 L68.0,133.9 L70.0,133.8 L72.0,133.8 L74.0,133.7 L76.0,133.6 L78.0,133.6 L80.0,133.5 L82.0,133.5 L84.0,133.5 L86.0,133.5 L88.0,133.4 L90.0,133.4 L92.0,133.4 L94.0,133.4 L96.0,133.3 L98.0,133.3 L100.0,133.3 L102.0,133.3 L104.0,133.4 L106.0,133.4 L108.0,133.3 L110.0,133.3 L112.0,133.3 L114.0,133.2 L116.0,133.2 L118.0,133.2 L120.0,133.2 L122.0,133.2 L124.0,133.2 L126.0,133.1 L128.0,133.1 L130.0,133.1 L132.0,133.1 L134.0,133.1 L136.0,133.1 L138.0,133.1 L140.0,133.0 L142.0,133.0 L144.0,133.0 L146.0,133.0 L148.0,132.9 L150.0,132.9 L152.0,132.9 L154.0,132.9 L156.0,132.9 L158.0,132.9 L160.0,132.9 L162.0,132.9 L164.0,132.9 L166.0,132.9 L168.0,132.9 L170.0,132.8 L172.0,132.8 L174.0,132.8 L176.0,132.8 L178.0,132.8 L180.0,132.8 L182.0,132.8 L184.0,132.8 L186.0,132.8 L188.0,132.8 L190.0,132.8 L192.0,132.7 L194.0,132.7 L196.0,132.7 L198.0,132.7 L200.0,132.7 L202.0,132.7 L204.0,132.6 L206.0,132.6 L208.0,132.6 L210.0,132.6 L212.0,132.6 L214.0,132.6 L216.0,132.6 L218.0,132.6 L220.0,132.6 L222.0,132.6 L224.0,132.6 L226.0,132.6 L228.0,132.6 L230.0,132.5 L232.0,132.5 L234.0,132.5 L236.0,132.5 L238.0,132.5 L240.0,132.5 L242.0,132.5 L244.0,132.4 L246.0,132.4 L248.0,132.4 L250.0,132.4 L252.0,132.4 L254.0,132.4 L256.0,132.4 L258.0,132.5 L260.0,132.5 L262.0,132.5 L264.0,132.5 L266.0,132.5 L268.0,132.5 L270.0,132.5 L272.0,132.5 L274.0,132.5 L276.0,132.5 L278.0,132.5 L280.0,132.5 L282.0,132.5 L284.0,132.5 L286.0,132.5 L288.0,132.5 L290.0,132.5 L292.0,132.5 L294.0,132.6 L296.0,132.6 L298.0,132.6 L300.0,132.6 L302.0,132.6 L304.0,132.6 L306.0,132.6 L308.0,132.6 L310.0,132.6 L312.0,132.6 L314.0,132.6 L316.0,132.5 L318.0,133.0 L318.3,134.0 L318.0,135.1 Z M961.0,135.0 L959.0,135.1 L957.0,135.1 L955.0,135.1 L953.0,135.1 L951.0,135.1 L949.0,135.1 L947.0,135.2 L945.0,135.2 L943.0,135.2 L941.0,135.3 L939.0,135.3 L937.0,135.3 L935.0,135.3 L933.0,135.4 L931.0,135.4 L929.0,135.4 L927.0,135.4 L925.0,135.4 L923.0,135.4 L921.0,135.4 L919.0,135.4 L917.0,135.4 L915.0,135.4 L913.0,135.5 L911.0,135.5 L909.0,135.5 L907.0,135.5 L905.0,135.5 L903.0,135.5 L901.0,135.6 L899.0,135.6 L897.0,135.6 L895.0,135.6 L893.0,135.6 L891.0,135.6 L889.0,135.6 L887.0,135.6 L885.0,135.6 L883.0,135.6 L881.0,135.6 L879.0,135.6 L877.0,135.5 L875.0,135.5 L873.0,135.5 L871.0,135.5 L869.0,135.5 L867.0,135.5 L865.0,135.5 L863.0,135.5 L861.0,135.5 L859.0,135.5 L857.0,135.5 L855.0,135.5 L853.0,135.5 L851.0,135.4 L849.0,135.4 L847.0,135.4 L845.0,135.4 L843.0,135.4 L841.0,135.4 L839.0,135.4 L837.0,135.4 L835.0,135.4 L833.0,135.4 L831.0,135.4 L829.0,135.4 L827.0,135.4 L825.0,135.4 L823.0,135.4 L821.0,135.4 L819.0,135.2 L818.6,134.0 L819.0,132.8 L821.0,132.7 L823.0,132.7 L825.0,132.7 L827.0,132.7 L829.0,132.7 L831.0,132.7 L833.0,132.7 L835.0,132.7 L837.0,132.7 L839.0,132.7 L841.0,132.7 L843.0,132.7 L845.0,132.7 L847.0,132.7 L849.0,132.7 L851.0,132.7 L853.0,132.6 L855.0,132.6 L857.0,132.6 L859.0,132.6 L861.0,132.6 L863.0,132.6 L865.0,132.6 L867.0,132.6 L869.0,132.6 L871.0,132.6 L873.0,132.6 L875.0,132.6 L877.0,132.6 L879.0,132.6 L881.0,132.6 L883.0,132.6 L885.0,132.6 L887.0,132.6 L889.0,132.5 L891.0,132.5 L893.0,132.5 L895.0,132.5 L897.0,132.5 L899.0,132.5 L901.0,132.5 L903.0,132.5 L905.0,132.6 L907.0,132.6 L909.0,132.6 L911.0,132.6 L913.0,132.6 L915.0,132.6 L917.0,132.6 L919.0,132.7 L921.0,132.7 L923.0,132.7 L925.0,132.7 L927.0,132.7 L929.0,132.7 L931.0,132.7 L933.0,132.7 L935.0,132.7 L937.0,132.7 L939.0,132.7 L941.0,132.8 L943.0,132.8 L945.0,132.8 L947.0,132.8 L949.0,132.8 L951.0,132.9 L953.0,132.8 L955.0,132.9 L957.0,132.9 L959.0,132.9 L961.0,132.9 L963.0,132.9 L965.0,132.9 L967.0,132.9 L969.0,133.0 L971.0,133.0 L973.0,133.0 L974.5,133.0 L975.5,133.0 L976.5,133.0 L978.0,133.0 L980.0,133.1 L982.0,133.1 L984.0,133.1 L986.0,133.1 L988.0,133.1 L990.0,133.2 L992.0,133.2 L994.0,133.2 L996.0,133.2 L998.0,133.2 L1000.0,133.2 L1002.0,133.2 L1004.0,133.2 L1006.0,133.2 L1008.0,133.3 L1010.0,133.3 L1012.0,133.3 L1014.0,133.3 L1016.0,133.3 L1018.0,133.3 L1020.0,133.4 L1022.0,133.4 L1024.0,133.4 L1026.0,133.4 L1028.0,133.4 L1030.0,133.5 L1032.0,133.5 L1034.0,133.5 L1036.0,133.5 L1038.0,133.6 L1040.0,133.6 L1042.0,133.6 L1044.0,133.7 L1046.0,133.7 L1048.0,133.7 L1050.0,133.8 L1052.0,133.9 L1054.0,133.9 L1056.0,133.9 L1058.0,134.0 L1056.0,134.1 L1054.0,134.1 L1052.0,134.1 L1050.0,134.2 L1048.0,134.2 L1046.0,134.3 L1044.0,134.3 L1042.0,134.3 L1040.0,134.4 L1038.0,134.4 L1036.0,134.4 L1034.0,134.4 L1032.0,134.5 L1030.0,134.5 L1028.0,134.5 L1026.0,134.5 L1024.0,134.5 L1022.0,134.6 L1020.0,134.6 L1018.0,134.6 L1016.0,134.6 L1014.0,134.6 L1012.0,134.6 L1010.0,134.6 L1008.0,134.7 L1006.0,134.7 L1004.0,134.7 L1002.0,134.7 L1000.0,134.7 L998.0,134.8 L996.0,134.8 L994.0,134.8 L992.0,134.8 L990.0,134.8 L988.0,134.8 L986.0,134.8 L984.0,134.9 L982.0,134.9 L980.0,134.9 L978.0,134.9 L976.0,134.9 L974.0,134.9 L972.0,134.9 L970.0,135.0 L968.0,135.0 L966.0,135.0 L964.0,135.0 L962.0,135.0 Z M643.3,147.0 L644.9,146.0 L645.7,145.0 L646.2,144.0 L646.5,142.0 L646.2,140.0 L645.7,139.0 L644.6,138.0 L643.0,137.2 L642.0,136.8 L640.0,136.7 L638.0,136.8 L636.0,136.8 L634.0,136.8 L632.0,136.8 L630.0,136.8 L628.0,136.8 L626.0,136.8 L624.0,136.8 L622.0,136.8 L620.0,136.8 L618.0,136.9 L616.0,136.9 L614.0,136.9 L612.7,137.0 L611.8,138.0 L611.8,140.0 L611.8,142.0 L611.7,144.0 L611.7,146.0 L612.0,147.3 L614.0,147.5 L616.0,147.5 L618.0,147.5 L620.0,147.5 L622.0,147.5 L624.0,147.5 L626.0,147.5 L628.0,147.6 L630.0,147.6 L632.0,147.6 L634.0,147.7 L636.0,147.7 L638.0,147.6 L640.0,147.6 L642.0,147.4 L643.3,147.0 Z"/></svg>